#N canvas 170 22 1135 852 10;
#X floatatom 230 130 5 0 0 0 - - -;
#X obj 230 160 sig~;
#X obj 285 113 osc~ 1;
#X floatatom 285 89 5 0 0 0 - - -;
#X obj 269 236 osc~;
#X obj 284 175 *~;
#X floatatom 299 147 5 0 0 0 - - -;
#X obj 269 202 +~;
#X text 327 613 L;
#X msg 165 73 440;
#X obj 165 33 loadbang;
#X obj 361 30 loadbang;
#X obj 283 24 loadbang;
#X msg 364 96 200;
#X msg 285 64 4;
#X obj 268 345 dac~ 1 2;
#X obj 268 287 stereo_control_version;
#X obj 400 263 hsl 128 15 -1 1 0 0 empty empty empty -2 -8 0 10 -262144
-1 -1 0 1;
#X obj 397 214 loadbang;
#X msg 397 237 0.5;
#X text 538 254 use the slider to position the sound!;
#X connect 0 0 1 0;
#X connect 1 0 7 0;
#X connect 2 0 5 0;
#X connect 3 0 2 0;
#X connect 4 0 16 0;
#X connect 5 0 7 1;
#X connect 6 0 5 1;
#X connect 7 0 4 0;
#X connect 9 0 0 0;
#X connect 10 0 9 0;
#X connect 11 0 13 0;
#X connect 12 0 14 0;
#X connect 13 0 6 0;
#X connect 14 0 3 0;
#X connect 16 0 15 0;
#X connect 16 1 15 1;
#X connect 17 0 16 1;
#X connect 18 0 19 0;
#X connect 19 0 17 0;
