#N canvas 244 53 372 474 10;
#X floatatom 59 136 5 0 0 0 - - -;
#X obj 59 166 sig~;
#X obj 128 110 osc~ 1;
#X floatatom 128 86 5 0 0 0 - - -;
#X obj 127 152 *~;
#X floatatom 179 110 5 0 0 0 - - -;
#X obj 59 208 +~;
#X msg 59 66 440;
#X obj 59 39 loadbang;
#X obj 179 53 loadbang;
#X obj 126 21 loadbang;
#X msg 179 79 200;
#X msg 128 61 4;
#X obj 59 435 dac~ 1 2;
#X obj 59 239 phasor~;
#X obj 186 246 hsl 128 15 0 20 0 0 empty empty empty -2 -8 0 10 -262144
-1 -1 635 1;
#X obj 183 191 loadbang;
#X obj 183 274 phasor~;
#X msg 183 216 1;
#X obj 183 306 *~ 2;
#X obj 183 333 -~ 1;
#X obj 60 399 stereo_signal_version;
#X obj 183 361 *~ -1;
#X connect 0 0 1 0;
#X connect 1 0 6 0;
#X connect 2 0 4 0;
#X connect 3 0 2 0;
#X connect 4 0 6 1;
#X connect 5 0 4 1;
#X connect 6 0 14 0;
#X connect 7 0 0 0;
#X connect 8 0 7 0;
#X connect 9 0 11 0;
#X connect 10 0 12 0;
#X connect 11 0 5 0;
#X connect 12 0 3 0;
#X connect 14 0 21 0;
#X connect 15 0 17 0;
#X connect 16 0 18 0;
#X connect 17 0 19 0;
#X connect 18 0 15 0;
#X connect 19 0 20 0;
#X connect 20 0 22 0;
#X connect 21 0 13 0;
#X connect 21 1 13 1;
#X connect 22 0 21 1;
