#N canvas 170 22 530 418 10;
#X floatatom 49 126 5 0 0 0 - - -;
#X obj 49 156 sig~;
#X obj 118 100 osc~ 1;
#X floatatom 118 76 5 0 0 0 - - -;
#X obj 117 142 *~;
#X floatatom 169 100 5 0 0 0 - - -;
#X obj 49 198 +~;
#X text 327 613 L;
#X msg 49 56 440;
#X obj 49 29 loadbang;
#X obj 169 43 loadbang;
#X obj 116 11 loadbang;
#X msg 169 69 200;
#X msg 118 51 4;
#X obj 49 325 dac~ 1 2;
#X obj 49 264 stereo_signal_version;
#X obj 49 229 phasor~;
#X obj 172 236 osc~;
#X obj 175 207 hsl 128 15 0 20 0 0 empty empty empty -2 -8 0 10 -262144
-1 -1 635 1;
#X obj 176 133 loadbang;
#X msg 176 158 1;
#X connect 0 0 1 0;
#X connect 1 0 6 0;
#X connect 2 0 4 0;
#X connect 3 0 2 0;
#X connect 4 0 6 1;
#X connect 5 0 4 1;
#X connect 6 0 16 0;
#X connect 8 0 0 0;
#X connect 9 0 8 0;
#X connect 10 0 12 0;
#X connect 11 0 13 0;
#X connect 12 0 5 0;
#X connect 13 0 3 0;
#X connect 15 0 14 0;
#X connect 15 1 14 1;
#X connect 16 0 15 0;
#X connect 17 0 15 1;
#X connect 18 0 17 0;
#X connect 19 0 20 0;
#X connect 20 0 18 0;
