#N canvas 298 284 1282 738 10;
#X floatatom 38 160 5 0 0 0 - - -, f 5;
#X obj 38 180 sig~;
#X obj 143 147 osc~ 1;
#X floatatom 143 123 5 0 0 0 - - -, f 5;
#X obj 38 306 osc~;
#X obj 143 179 *~, f 19;
#X floatatom 254 151 5 0 0 0 - - -, f 5;
#X obj 38 222 +~, f 18;
#X msg 38 133 440;
#X obj 38 103 loadbang;
#X obj 254 93 loadbang;
#X obj 143 68 loadbang;
#X msg 254 120 200;
#X msg 143 98 4;
#X obj 38 365 dac~ 1 2, f 22;
#X obj 38 337 stereo_control_version;
#X obj 170 313 hsl 128 15 -1 0 0 0 empty empty empty -2 -8 0 10 -262144
-1 -1 5800 1;
#X obj 167 264 loadbang;
#X msg 167 287 0.5;
#X text 308 304 use the slider to position the sound!;
#X obj 11 13 cnv 15 1260 30 0 empty SoundSpaceInteraction_Lab1 8 15
0 18 -49932 -262144 0;
#X obj 10 693 cnv 15 1260 30 empty empty JasperSchelling_MediaTechnology_MScProgramme_LeidenUniversity
885 16 0 10 -216371 -66577 0;
#X connect 0 0 1 0;
#X connect 1 0 7 0;
#X connect 2 0 5 0;
#X connect 3 0 2 0;
#X connect 4 0 15 0;
#X connect 5 0 7 1;
#X connect 6 0 5 1;
#X connect 7 0 4 0;
#X connect 8 0 0 0;
#X connect 9 0 8 0;
#X connect 10 0 12 0;
#X connect 11 0 13 0;
#X connect 12 0 6 0;
#X connect 13 0 3 0;
#X connect 15 0 14 0;
#X connect 15 1 14 1;
#X connect 16 0 15 1;
#X connect 17 0 18 0;
#X connect 18 0 16 0;
