#N canvas 213 30 1283 734 10;
#X floatatom 38 180 5 0 0 0 - - -, f 5;
#X obj 38 210 sig~;
#X obj 107 173 osc~ 1;
#X floatatom 107 149 5 0 0 0 - - -, f 5;
#X obj 107 196 *~, f 10;
#X floatatom 164 174 5 0 0 0 - - -, f 5;
#X obj 38 252 +~, f 12;
#X msg 38 150 440;
#X obj 38 123 loadbang;
#X obj 164 117 loadbang;
#X obj 107 95 loadbang;
#X msg 164 143 200;
#X msg 107 124 4;
#X obj 38 399 dac~ 1 2, f 21;
#X obj 38 368 stereo_signal_version;
#X obj 38 340 phasor~;
#X obj 161 340 osc~;
#X obj 164 311 hsl 128 15 0 20 0 0 empty empty empty -2 -8 0 10 -262144
-1 -1 635 1;
#X obj 161 257 loadbang;
#X msg 161 282 1;
#X obj 11 13 cnv 15 1260 30 0 empty SoundSpaceInteraction_Lab1 8 15
0 18 -49932 -262144 0;
#X obj 10 693 cnv 15 1260 30 empty empty JasperSchelling_MediaTechnology_MScProgramme_LeidenUniversity
885 16 0 10 -216371 -66577 0;
#X connect 0 0 1 0;
#X connect 1 0 6 0;
#X connect 2 0 4 0;
#X connect 3 0 2 0;
#X connect 4 0 6 1;
#X connect 5 0 4 1;
#X connect 6 0 15 0;
#X connect 7 0 0 0;
#X connect 8 0 7 0;
#X connect 9 0 11 0;
#X connect 10 0 12 0;
#X connect 11 0 5 0;
#X connect 12 0 3 0;
#X connect 14 0 13 0;
#X connect 14 1 13 1;
#X connect 15 0 14 0;
#X connect 16 0 14 1;
#X connect 17 0 16 0;
#X connect 18 0 19 0;
#X connect 19 0 17 0;
