#N canvas 637 523 251 266 10;
#X obj 74 153 inlet~;
#X text 109 185 L;
#X text 207 187 R;
#X obj 126 187 *~;
#X obj 180 186 *~;
#X obj 127 222 outlet~;
#X obj 180 222 outlet~;
#X text 11 154 Audio IN;
#X obj 143 13 inlet~;
#X obj 142 51 +~ 1;
#X obj 142 87 /~ 8;
#X obj 195 144 cos~;
#X obj 141 144 sin~;
#X connect 0 0 4 0;
#X connect 0 0 3 0;
#X connect 3 0 5 0;
#X connect 4 0 6 0;
#X connect 8 0 9 0;
#X connect 9 0 10 0;
#X connect 10 0 12 0;
#X connect 10 0 11 0;
#X connect 11 0 4 1;
#X connect 12 0 3 1;
