#N canvas 855 157 578 579 10;
#X obj 274 80 inlet;
#X obj 222 405 inlet~;
#X obj 359 406 line~;
#X msg 359 377 \$1 20;
#X text 242 437 L;
#X text 371 440 R;
#X obj 274 350 cos;
#X obj 359 349 sin;
#X floatatom 274 131 5 0 0 0 - - -;
#X obj 274 406 line~;
#X msg 274 377 \$1 20;
#X obj 259 439 *~;
#X obj 344 439 *~;
#X obj 289 239 PI;
#X obj 289 266 / 2;
#X obj 274 297 *;
#X obj 274 155 + 1;
#X floatatom 274 205 5 0 0 0 - - -;
#X obj 274 180 * 0.5;
#X obj 260 474 outlet~;
#X obj 344 475 outlet~;
#X text 159 406 Audio IN;
#X text 320 81 stereo position in;
#X connect 0 0 8 0;
#X connect 1 0 12 0;
#X connect 1 0 11 0;
#X connect 2 0 12 1;
#X connect 3 0 2 0;
#X connect 6 0 10 0;
#X connect 7 0 3 0;
#X connect 8 0 16 0;
#X connect 9 0 11 1;
#X connect 10 0 9 0;
#X connect 11 0 19 0;
#X connect 12 0 20 0;
#X connect 13 0 14 0;
#X connect 14 0 15 1;
#X connect 15 0 6 0;
#X connect 15 0 7 0;
#X connect 16 0 18 0;
#X connect 17 0 15 0;
#X connect 18 0 17 0;
