#N canvas 412 143 948 683 10;
#X obj -387 22 tgl 15 0 empty empty Run 17 7 0 10 -262144 -1 -1 1 1
;
#X floatatom -168 75 5 0 0 0 - - -, f 5;
#X floatatom -158 119 5 0 0 0 - - -, f 5;
#X obj -387 42 timebase 120 4 0, f 37;
#X floatatom -314 21 5 0 0 0 BPM - -, f 5;
#X floatatom -168 17 5 0 0 0 Swing - -, f 5;
#X obj -168 94 mod 16;
#X obj -168 144 select 0 1 2 3 4 5 6 7 8 9 10 11 12 13 14 15;
#X obj -168 202 bng 15 250 50 0 empty empty empty 17 7 0 10 -262144
-1 -1;
#X obj -54 204 bng 15 250 50 0 empty empty empty 17 7 0 10 -262144
-1 -1;
#X obj 27 205 bng 15 250 50 0 empty empty empty 17 7 0 10 -262144 -1
-1;
#X obj -364 243 oneshotplayer;
#X obj 60 203 bng 15 250 50 0 empty empty empty 17 7 0 10 -262144 -1
-1;
#X msg 114 289 0;
#X msg 160 289 1;
#X msg 205 291 2;
#X msg 244 292 3;
#X obj -116 398 pan4~, f 42;
#X obj -109 466 dac~ 1 2 2 1;
#X floatatom -294 463 0 0 120 0 - - -;
#X text -254 465 level \, dB;
#X floatatom -261 492 0 0 100 0 - - -;
#X text -219 487 liveness \, 0-100;
#X floatatom -225 511 4 0 5000 0 - - -, f 4;
#X floatatom -190 534 0 0 100 0 - - -;
#X text -177 509 crossover frequency \, Hz.;
#X text -154 536 HF damping \, percent;
#X obj -365 560 rev3~ 100 90 3000 20;
#X obj -362 610 dac~ 1 2 2 1;
#X obj -261 357 *~;
#X obj -232 331 hsl 128 15 0 1 0 0 empty empty empty -2 -8 0 10 -262144
-1 -1 9525 1;
#X msg -113 297 0.25;
#X msg -75 297 0.5;
#X msg -44 295 0.75;
#X msg -2 296 1;
#X connect 0 0 3 0;
#X connect 1 0 6 0;
#X connect 3 1 1 0;
#X connect 4 0 3 1;
#X connect 5 0 3 3;
#X connect 6 0 2 0;
#X connect 6 0 7 0;
#X connect 7 0 8 0;
#X connect 7 7 9 0;
#X connect 7 12 10 0;
#X connect 7 14 12 0;
#X connect 8 0 11 1;
#X connect 8 0 13 0;
#X connect 8 0 34 0;
#X connect 9 0 11 1;
#X connect 9 0 14 0;
#X connect 9 0 33 0;
#X connect 10 0 11 1;
#X connect 10 0 15 0;
#X connect 10 0 32 0;
#X connect 11 0 27 0;
#X connect 11 0 29 0;
#X connect 12 0 11 1;
#X connect 12 0 16 0;
#X connect 12 0 31 0;
#X connect 13 0 17 1;
#X connect 14 0 17 1;
#X connect 15 0 17 1;
#X connect 16 0 17 1;
#X connect 17 0 18 0;
#X connect 17 1 18 1;
#X connect 17 2 18 2;
#X connect 17 3 18 3;
#X connect 19 0 27 2;
#X connect 21 0 27 3;
#X connect 23 0 27 4;
#X connect 24 0 27 5;
#X connect 27 0 28 0;
#X connect 27 1 28 1;
#X connect 27 2 28 2;
#X connect 27 3 28 3;
#X connect 29 0 17 0;
#X connect 30 0 29 1;
#X connect 31 0 30 0;
#X connect 32 0 30 0;
#X connect 33 0 30 0;
#X connect 34 0 30 0;
