#N canvas 1098 548 481 479 10;
#X obj 233 17 loadbang;
#X obj 233 39 t b b b;
#X obj 151 65 inlet bpm;
#X obj 218 65 inlet beats;
#X obj 298 64 inlet swing;
#X obj 151 93 f \$1;
#X obj 218 93 f \$2;
#X obj 298 92 f \$3;
#X obj 151 115 swap 60000;
#X obj 151 141 /, f 10;
#X obj 151 199 / 4, f 5;
#X obj 151 221 t f f;
#X obj 52 60 inlet control;
#X obj 52 262 metro 125, f 17;
#X obj 66 92 sel 0;
#X msg 66 114 0;
#X obj 196 221 t b f;
#X obj 178 255 *;
#X obj 52 284 t b b;
#X obj 79 313 del, f 17;
#X obj 52 360 t b b;
#X obj 52 442 outlet bangs;
#X obj 155 400 f 0;
#X obj 195 399 + 1;
#X obj 155 442 outlet time;
#X obj 218 140 t b f;
#X obj 298 114 / 100;
#X obj 298 136 + 1;
#X connect 0 0 1 0;
#X connect 1 0 5 0;
#X connect 1 1 6 0;
#X connect 1 2 7 0;
#X connect 2 0 5 0;
#X connect 3 0 6 0;
#X connect 4 0 7 0;
#X connect 5 0 8 0;
#X connect 6 0 25 0;
#X connect 7 0 26 0;
#X connect 8 0 9 0;
#X connect 8 1 9 1;
#X connect 9 0 10 0;
#X connect 10 0 11 0;
#X connect 11 0 13 1;
#X connect 11 1 17 0;
#X connect 12 0 13 0;
#X connect 12 0 14 0;
#X connect 13 0 18 0;
#X connect 14 0 15 0;
#X connect 15 0 22 1;
#X connect 16 0 17 0;
#X connect 16 1 17 1;
#X connect 17 0 19 1;
#X connect 18 0 20 0;
#X connect 18 1 19 0;
#X connect 19 0 20 0;
#X connect 20 0 21 0;
#X connect 20 1 22 0;
#X connect 22 0 23 0;
#X connect 22 0 24 0;
#X connect 23 0 22 1;
#X connect 25 0 10 0;
#X connect 25 1 10 1;
#X connect 26 0 27 0;
#X connect 27 0 16 0;
