#N canvas 298 22 1369 800 10;
#X obj 26 23 player_controls;
#X obj 25 56 r p1_btn_rs;
#X obj 25 98 r p1_btn_r2;
#X obj 25 140 r p1_btn_r1;
#X obj 25 182 r p1_btn_ls;
#X obj 25 224 r p1_btn_l2;
#X obj 25 266 r p1_btn_l1;
#X obj 25 308 r p1_btn_a;
#X obj 25 350 r p1_btn_y;
#X obj 25 392 r p1_btn_b;
#X obj 25 434 r p1_btn_x;
#X obj 25 476 r p1_btn_start;
#X obj 25 518 r p1_btn_home;
#X obj 25 558 r p1_btn_select;
#X obj 25 600 r p1_btn_right;
#X obj 25 642 r p1_btn_left;
#X obj 25 684 r p1_btn_down;
#X obj 25 726 r p1_btn_up;
#X obj 25 768 r p1_ry;
#X obj 25 810 r p1_rx;
#X obj 25 852 r p1_ly;
#X obj 25 894 r p1_lx;
#X obj 129 56 r p2_btn_rs;
#X obj 129 98 r p2_btn_r2;
#X obj 129 140 r p2_btn_r1;
#X obj 129 182 r p2_btn_ls;
#X obj 129 224 r p2_btn_l2;
#X obj 129 266 r p2_btn_l1;
#X obj 129 308 r p2_btn_a;
#X obj 129 350 r p2_btn_y;
#X obj 129 392 r p2_btn_b;
#X obj 129 434 r p2_btn_x;
#X obj 129 476 r p2_btn_start;
#X obj 130 516 r p2_btn_home;
#X obj 130 558 r p2_btn_select;
#X obj 130 600 r p2_btn_right;
#X obj 130 642 r p2_btn_left;
#X obj 130 684 r p2_btn_down;
#X obj 130 726 r p2_btn_up;
#X obj 130 768 r p2_ry;
#X obj 130 810 r p2_rx;
#X obj 130 852 r p2_ly;
#X obj 130 894 r p2_lx;
#X obj 25 78 tgl 15 0 empty empty empty 17 7 0 10 -262144 -1 -1 0 1
;
#X obj 25 120 tgl 15 0 empty empty empty 17 7 0 10 -262144 -1 -1 0
1;
#X obj 25 162 tgl 15 0 empty empty empty 17 7 0 10 -262144 -1 -1 0
1;
#X obj 25 204 tgl 15 0 empty empty empty 17 7 0 10 -262144 -1 -1 0
1;
#X obj 25 246 tgl 15 0 empty empty empty 17 7 0 10 -262144 -1 -1 0
1;
#X obj 25 288 tgl 15 0 empty empty empty 17 7 0 10 -262144 -1 -1 0
1;
#X obj 25 330 tgl 15 0 empty empty empty 17 7 0 10 -262144 -1 -1 0
1;
#X obj 25 372 tgl 15 0 empty empty empty 17 7 0 10 -262144 -1 -1 0
1;
#X obj 25 414 tgl 15 0 empty empty empty 17 7 0 10 -262144 -1 -1 0
1;
#X obj 25 456 tgl 15 0 empty empty empty 17 7 0 10 -262144 -1 -1 0
1;
#X obj 25 498 tgl 15 0 empty empty empty 17 7 0 10 -262144 -1 -1 0
1;
#X obj 25 540 tgl 15 0 empty empty empty 17 7 0 10 -262144 -1 -1 0
1;
#X obj 25 580 tgl 15 0 empty empty empty 17 7 0 10 -262144 -1 -1 0
1;
#X obj 25 622 tgl 15 0 empty empty empty 17 7 0 10 -262144 -1 -1 0
1;
#X obj 25 664 tgl 15 0 empty empty empty 17 7 0 10 -262144 -1 -1 0
1;
#X obj 25 706 tgl 15 0 empty empty empty 17 7 0 10 -262144 -1 -1 0
1;
#X obj 25 748 tgl 15 0 empty empty empty 17 7 0 10 -262144 -1 -1 0
1;
#X obj 129 78 tgl 15 0 empty empty empty 17 7 0 10 -262144 -1 -1 0
1;
#X obj 129 120 tgl 15 0 empty empty empty 17 7 0 10 -262144 -1 -1 0
1;
#X floatatom 25 790 5 0 0 0 - - -, f 5;
#X floatatom 25 832 5 0 0 0 - - -, f 5;
#X floatatom 25 874 5 0 0 0 - - -, f 5;
#X floatatom 25 916 5 0 0 0 - - -, f 5;
#X obj 129 162 tgl 15 0 empty empty empty 17 7 0 10 -262144 -1 -1 0
1;
#X obj 129 204 tgl 15 0 empty empty empty 17 7 0 10 -262144 -1 -1 0
1;
#X obj 129 246 tgl 15 0 empty empty empty 17 7 0 10 -262144 -1 -1 0
1;
#X obj 129 288 tgl 15 0 empty empty empty 17 7 0 10 -262144 -1 -1 0
1;
#X obj 129 330 tgl 15 0 empty empty empty 17 7 0 10 -262144 -1 -1 0
1;
#X obj 129 372 tgl 15 0 empty empty empty 17 7 0 10 -262144 -1 -1 0
1;
#X obj 129 414 tgl 15 0 empty empty empty 17 7 0 10 -262144 -1 -1 0
1;
#X obj 129 456 tgl 15 0 empty empty empty 17 7 0 10 -262144 -1 -1 0
1;
#X obj 129 498 tgl 15 0 empty empty empty 17 7 0 10 -262144 -1 -1 0
1;
#X obj 130 538 tgl 15 0 empty empty empty 17 7 0 10 -262144 -1 -1 0
1;
#X obj 130 580 tgl 15 0 empty empty empty 17 7 0 10 -262144 -1 -1 0
1;
#X obj 130 622 tgl 15 0 empty empty empty 17 7 0 10 -262144 -1 -1 0
1;
#X obj 130 664 tgl 15 0 empty empty empty 17 7 0 10 -262144 -1 -1 0
1;
#X obj 130 706 tgl 15 0 empty empty empty 17 7 0 10 -262144 -1 -1 0
1;
#X obj 130 748 tgl 15 0 empty empty empty 17 7 0 10 -262144 -1 -1 0
1;
#X floatatom 130 790 5 0 0 0 - - -, f 5;
#X floatatom 130 832 5 0 0 0 - - -, f 5;
#X floatatom 130 874 5 0 0 0 - - -, f 5;
#X floatatom 130 916 5 0 0 0 - - -, f 5;
#X obj 566 276 vsl 15 128 1 100 1 0 empty empty empty 0 -9 0 10 -262144
-1 -1 9100 1;
#X floatatom 576 415 5 0 0 0 - - -, f 5;
#X obj 566 436 dbtorms;
#X floatatom 576 464 5 0 0 0 - - -, f 5;
#X obj 566 491 t b f;
#X obj 526 468 tgl 15 0 empty empty empty 17 7 0 10 -262144 -1 -1 0
1;
#X obj 526 488 == 0;
#X text 525 451 mute;
#X obj 566 523 *, f 5;
#X obj 566 545 sig~;
#X obj 566 567 lop~ 1;
#X obj 551 667 *~;
#X obj 263 847 cospan2, f 8;
#X floatatom 308 821 5 0 0 0 - - -, f 5;
#X floatatom 377 305 5 0 0 0 - - -, f 5;
#X obj 377 327 osc~;
#X floatatom 343 734 5 0 0 0 - - -, f 5;
#X floatatom 378 734 5 0 0 0 - - -, f 5;
#X floatatom 413 734 5 0 0 0 - - -, f 5;
#X floatatom 449 733 5 0 0 0 - - -, f 5;
#X obj 308 761 map, f 24;
#X obj 308 705 r p1_lx;
#X floatatom 308 790 5 0 0 0 - - -, f 5;
#X floatatom 482 224 5 0 0 0 - - -, f 5;
#X floatatom 518 223 5 0 0 0 - - -, f 5;
#X obj 377 154 r p1_ry;
#X obj 377 279 mtof;
#X obj 377 251 map, f 24;
#X obj 551 833 cospan4, f 12;
#X floatatom 620 806 5 0 0 0 - - -, f 5;
#X msg 412 222 -1;
#X msg 447 222 1;
#X obj 412 189 loadbang;
#X obj 685 356 cartasian2polar;
#X floatatom 685 387 5 0 0 0 - - -, f 5;
#X floatatom 772 387 5 0 0 0 - - -, f 5;
#X obj 685 85 vsl 15 128 -1 1 0 0 empty empty empty 0 -9 0 10 -262144
-1 -1 0 1;
#X obj 775 211 hsl 128 15 -1 1 0 0 empty empty empty -2 -8 0 10 -262144
-1 -1 0 1;
#X floatatom 772 329 5 0 0 0 - - -, f 5;
#X floatatom 685 329 5 0 0 0 - - -, f 5;
#X obj 754 251 bng 15 250 50 0 empty empty empty 17 7 0 10 -262144
-1 -1;
#X obj 714 251 bng 15 250 50 0 empty empty empty 17 7 0 10 -262144
-1 -1;
#X obj 772 153 r p1_lx;
#X obj 685 28 r p1_ly;
#X obj 728 565 normalize;
#X obj 819 523 expr 8*atan(1);
#X msg 754 515 0;
#X obj 787 458 bng 15 250 50 0 empty empty empty 17 7 0 10 -262144
-1 -1;
#X obj 815 663 map, f 25;
#X msg 852 603 0;
#X msg 888 603 1;
#X msg 925 603 0;
#X msg 962 603 4;
#X obj 954 557 bng 15 250 50 0 empty empty empty 17 7 0 10 -262144
-1 -1;
#X obj 429 558 noise~;
#X obj 443 387 phasor~;
#X obj 387 506 *~ 2;
#X obj 498 547 -~ 1;
#X obj 551 867 dac~ 1 2 2 1;
#X connect 1 0 43 0;
#X connect 2 0 44 0;
#X connect 3 0 45 0;
#X connect 4 0 46 0;
#X connect 5 0 47 0;
#X connect 6 0 48 0;
#X connect 7 0 49 0;
#X connect 8 0 50 0;
#X connect 9 0 51 0;
#X connect 10 0 52 0;
#X connect 11 0 53 0;
#X connect 12 0 54 0;
#X connect 13 0 55 0;
#X connect 14 0 56 0;
#X connect 15 0 57 0;
#X connect 16 0 58 0;
#X connect 17 0 59 0;
#X connect 18 0 62 0;
#X connect 19 0 63 0;
#X connect 20 0 64 0;
#X connect 21 0 65 0;
#X connect 22 0 60 0;
#X connect 23 0 61 0;
#X connect 24 0 66 0;
#X connect 25 0 67 0;
#X connect 26 0 68 0;
#X connect 27 0 69 0;
#X connect 28 0 70 0;
#X connect 29 0 71 0;
#X connect 30 0 72 0;
#X connect 31 0 73 0;
#X connect 32 0 74 0;
#X connect 33 0 75 0;
#X connect 34 0 76 0;
#X connect 35 0 77 0;
#X connect 36 0 78 0;
#X connect 37 0 79 0;
#X connect 38 0 80 0;
#X connect 39 0 81 0;
#X connect 40 0 82 0;
#X connect 41 0 83 0;
#X connect 42 0 84 0;
#X connect 85 0 86 0;
#X connect 85 0 87 0;
#X connect 87 0 88 0;
#X connect 87 0 89 0;
#X connect 89 0 93 0;
#X connect 89 1 93 1;
#X connect 90 0 91 0;
#X connect 91 0 93 0;
#X connect 93 0 94 0;
#X connect 94 0 95 0;
#X connect 95 0 96 1;
#X connect 96 0 113 0;
#X connect 98 0 97 1;
#X connect 99 0 100 0;
#X connect 99 0 140 0;
#X connect 101 0 105 1;
#X connect 102 0 105 2;
#X connect 103 0 105 3;
#X connect 104 0 105 4;
#X connect 105 0 107 0;
#X connect 106 0 105 0;
#X connect 107 0 98 0;
#X connect 108 0 112 3;
#X connect 109 0 112 4;
#X connect 110 0 112 0;
#X connect 111 0 99 0;
#X connect 112 0 111 0;
#X connect 113 0 143 0;
#X connect 113 1 143 1;
#X connect 113 2 143 2;
#X connect 113 3 143 3;
#X connect 114 0 113 1;
#X connect 115 0 112 1;
#X connect 116 0 112 2;
#X connect 117 0 115 0;
#X connect 117 0 116 0;
#X connect 118 0 119 0;
#X connect 118 1 120 0;
#X connect 119 0 129 0;
#X connect 121 0 124 0;
#X connect 121 0 126 0;
#X connect 122 0 123 0;
#X connect 122 0 125 0;
#X connect 123 0 118 1;
#X connect 124 0 118 0;
#X connect 125 0 124 0;
#X connect 126 0 123 0;
#X connect 127 0 122 0;
#X connect 128 0 121 0;
#X connect 129 0 133 0;
#X connect 130 0 129 2;
#X connect 131 0 129 1;
#X connect 132 0 131 0;
#X connect 132 0 130 0;
#X connect 133 0 114 0;
#X connect 134 0 133 1;
#X connect 135 0 133 2;
#X connect 136 0 133 3;
#X connect 137 0 133 4;
#X connect 138 0 137 0;
#X connect 138 0 136 0;
#X connect 138 0 135 0;
#X connect 138 0 134 0;
#X connect 139 0 96 0;
#X connect 140 0 141 0;
#X connect 141 0 142 0;
