#N canvas 52 654 549 478 10;
#X obj 90 80 inlet x1;
#X obj 150 80 inlet y1;
#X obj 221 82 inlet x2;
#X obj 281 82 inlet y2;
#X obj 132 404 outlet d;
#X obj 134 189 -;
#X obj 173 188 -;
#X obj 132 237 *;
#X floatatom 132 319 5 0 0 0 - - -, f 5;
#X obj 171 237 *;
#X floatatom 171 259 5 0 0 0 - - -, f 5;
#X obj 132 339 +, f 7;
#X obj 132 372 sqrt;
#X obj 73 254 bng 15 250 50 0 empty empty empty 17 7 0 10 -262144 -1
-1;
#X connect 0 0 5 0;
#X connect 1 0 6 0;
#X connect 2 0 5 1;
#X connect 3 0 6 1;
#X connect 5 0 7 0;
#X connect 5 0 7 1;
#X connect 6 0 9 0;
#X connect 6 0 9 1;
#X connect 7 0 8 0;
#X connect 8 0 11 0;
#X connect 9 0 10 0;
#X connect 10 0 11 1;
#X connect 10 0 13 0;
#X connect 11 0 12 0;
#X connect 12 0 4 0;
#X connect 13 0 8 0;
