#N canvas 237 22 1440 800 10;
#X msg 431 205 print;
#X floatatom 729 428 5 0 0 0 - - -, f 5;
#X floatatom 770 429 5 0 0 0 - - -, f 5;
#X text 1337 342 Player 2;
#X obj 104 95 bng 15 250 50 0 empty empty empty 17 7 0 10 -262144 -1
-1;
#X obj 77 213 tgl 15 0 empty empty empty 17 7 0 10 -262144 -1 -1 1
1;
#X obj 77 95 bng 15 250 50 0 empty empty empty 17 7 0 10 -262144 -1
-1;
#X obj 77 35 loadbang;
#X obj 77 68 t b b;
#X obj 891 431 tgl 15 0 empty empty empty 17 7 0 10 -262144 -1 -1 0
1;
#X floatatom 806 430 5 0 0 0 - - -, f 5;
#X floatatom 845 430 5 0 0 0 - - -, f 5;
#X obj 913 431 tgl 15 0 empty empty empty 17 7 0 10 -262144 -1 -1 0
1;
#X obj 935 431 tgl 15 0 empty empty empty 17 7 0 10 -262144 -1 -1 0
1;
#X obj 960 431 tgl 15 0 empty empty empty 17 7 0 10 -262144 -1 -1 0
1;
#X obj 997 431 tgl 15 0 empty empty empty 17 7 0 10 -262144 -1 -1 0
1;
#X obj 1019 431 tgl 15 0 empty empty empty 17 7 0 10 -262144 -1 -1
0 1;
#X obj 1041 431 tgl 15 0 empty empty empty 17 7 0 10 -262144 -1 -1
0 1;
#X obj 1073 431 tgl 15 0 empty empty empty 17 7 0 10 -262144 -1 -1
0 1;
#X obj 1096 431 tgl 15 0 empty empty empty 17 7 0 10 -262144 -1 -1
0 1;
#X obj 1117 431 tgl 15 0 empty empty empty 17 7 0 10 -262144 -1 -1
0 1;
#X obj 1141 431 tgl 15 0 empty empty empty 17 7 0 10 -262144 -1 -1
0 1;
#X obj 1170 431 tgl 15 0 empty empty empty 17 7 0 10 -262144 -1 -1
0 1;
#X obj 1192 431 tgl 15 0 empty empty empty 17 7 0 10 -262144 -1 -1
0 1;
#X obj 1214 431 tgl 15 0 empty empty empty 17 7 0 10 -262144 -1 -1
0 1;
#X obj 1244 431 tgl 15 0 empty empty empty 17 7 0 10 -262144 -1 -1
0 1;
#X obj 1266 431 tgl 15 0 empty empty empty 17 7 0 10 -262144 -1 -1
0 1;
#X obj 1288 431 tgl 15 0 empty empty empty 17 7 0 10 -262144 -1 -1
0 1;
#X floatatom 77 427 5 0 0 0 - - -, f 5;
#X floatatom 116 427 5 0 0 0 - - -, f 5;
#X obj 238 430 tgl 15 0 empty empty empty 17 7 0 10 -262144 -1 -1 0
1;
#X floatatom 153 428 5 0 0 0 - - -, f 5;
#X floatatom 190 428 5 0 0 0 - - -, f 5;
#X obj 260 430 tgl 15 0 empty empty empty 17 7 0 10 -262144 -1 -1 0
1;
#X obj 282 430 tgl 15 0 empty empty empty 17 7 0 10 -262144 -1 -1 0
1;
#X obj 304 430 tgl 15 0 empty empty empty 17 7 0 10 -262144 -1 -1 0
1;
#X obj 344 430 tgl 15 0 empty empty empty 17 7 0 10 -262144 -1 -1 0
1;
#X obj 366 430 tgl 15 0 empty empty empty 17 7 0 10 -262144 -1 -1 0
1;
#X obj 388 430 tgl 15 0 empty empty empty 17 7 0 10 -262144 -1 -1 0
1;
#X obj 420 430 tgl 15 0 empty empty empty 17 7 0 10 -262144 -1 -1 0
1;
#X obj 442 430 tgl 15 0 empty empty empty 17 7 0 10 -262144 -1 -1 0
1;
#X obj 464 430 tgl 15 0 empty empty empty 17 7 0 10 -262144 -1 -1 0
1;
#X obj 486 430 tgl 15 0 empty empty empty 17 7 0 10 -262144 -1 -1 0
1;
#X obj 517 430 tgl 15 0 empty empty empty 17 7 0 10 -262144 -1 -1 0
1;
#X obj 539 430 tgl 15 0 empty empty empty 17 7 0 10 -262144 -1 -1 0
1;
#X obj 561 430 tgl 15 0 empty empty empty 17 7 0 10 -262144 -1 -1 0
1;
#X obj 591 430 tgl 15 0 empty empty empty 17 7 0 10 -262144 -1 -1 0
1;
#X obj 613 430 tgl 15 0 empty empty empty 17 7 0 10 -262144 -1 -1 0
1;
#X obj 635 430 tgl 15 0 empty empty empty 17 7 0 10 -262144 -1 -1 0
1;
#X obj 77 325 wii_u_classic_controller;
#X obj 77 906 send p1_lx;
#X obj 117 883 send p1_ly;
#X text 653 328 Player 1;
#X obj 153 860 send p1_rx;
#X obj 190 839 send p1_ry;
#X obj 282 772 send p1_btn_left;
#X obj 307 750 send p1_btn_right;
#X obj 238 817 send p1_btn_up;
#X obj 260 795 send p1_btn_down;
#X obj 344 728 send p1_btn_select;
#X obj 388 683 send p1_btn_start;
#X obj 366 706 send p1_btn_home;
#X obj 488 596 send p1_btn_a;
#X obj 443 640 send p1_btn_b;
#X obj 420 661 send p1_btn_x;
#X obj 464 618 send p1_btn_y;
#X obj 517 575 send p1_btn_l1;
#X obj 539 554 send p1_btn_l2;
#X obj 561 532 send p1_btn_ls;
#X obj 591 511 send p1_btn_r1;
#X obj 613 488 send p1_btn_r2;
#X obj 635 466 send p1_btn_rs;
#X obj 729 326 wii_u_classic_controller;
#X obj 1288 463 send p2_btn_rs;
#X obj 1266 485 send p2_btn_r2;
#X obj 1244 508 send p2_btn_r1;
#X obj 1214 529 send p2_btn_ls;
#X obj 1192 551 send p2_btn_l2;
#X obj 1170 572 send p2_btn_l1;
#X obj 1141 593 send p2_btn_a;
#X obj 1117 615 send p2_btn_y;
#X obj 1096 637 send p2_btn_b;
#X obj 1073 658 send p2_btn_x;
#X obj 1041 680 send p2_btn_start;
#X obj 1019 703 send p2_btn_home;
#X obj 997 725 send p2_btn_select;
#X obj 960 747 send p2_btn_right;
#X obj 935 769 send p2_btn_left;
#X obj 913 792 send p2_btn_down;
#X obj 891 814 send p2_btn_up;
#X obj 843 836 send p2_ry;
#X obj 806 857 send p2_rx;
#X obj 770 880 send p2_ly;
#X obj 730 903 send p2_lx;
#X msg 477 204 open 6;
#X obj 30 33 bng 15 250 50 0 empty empty empty 17 7 0 10 -262144 -1
-1;
#X msg 368 205 open 4;
#X connect 0 0 72 0;
#X connect 1 0 93 0;
#X connect 2 0 92 0;
#X connect 4 0 96 0;
#X connect 4 0 94 0;
#X connect 4 0 0 0;
#X connect 5 0 49 0;
#X connect 5 0 72 0;
#X connect 6 0 5 0;
#X connect 7 0 8 0;
#X connect 8 0 6 0;
#X connect 8 1 4 0;
#X connect 9 0 89 0;
#X connect 10 0 91 0;
#X connect 11 0 90 0;
#X connect 12 0 88 0;
#X connect 13 0 87 0;
#X connect 14 0 86 0;
#X connect 15 0 85 0;
#X connect 16 0 84 0;
#X connect 17 0 83 0;
#X connect 18 0 82 0;
#X connect 19 0 81 0;
#X connect 20 0 80 0;
#X connect 21 0 79 0;
#X connect 22 0 78 0;
#X connect 23 0 77 0;
#X connect 24 0 76 0;
#X connect 25 0 75 0;
#X connect 26 0 74 0;
#X connect 27 0 73 0;
#X connect 28 0 50 0;
#X connect 29 0 51 0;
#X connect 30 0 57 0;
#X connect 31 0 53 0;
#X connect 32 0 54 0;
#X connect 33 0 58 0;
#X connect 34 0 55 0;
#X connect 35 0 56 0;
#X connect 36 0 59 0;
#X connect 37 0 61 0;
#X connect 38 0 60 0;
#X connect 39 0 64 0;
#X connect 40 0 63 0;
#X connect 41 0 65 0;
#X connect 42 0 62 0;
#X connect 43 0 66 0;
#X connect 44 0 67 0;
#X connect 45 0 68 0;
#X connect 46 0 69 0;
#X connect 47 0 70 0;
#X connect 48 0 71 0;
#X connect 49 0 28 0;
#X connect 49 1 29 0;
#X connect 49 2 31 0;
#X connect 49 3 32 0;
#X connect 49 4 30 0;
#X connect 49 5 33 0;
#X connect 49 6 34 0;
#X connect 49 7 35 0;
#X connect 49 8 36 0;
#X connect 49 9 37 0;
#X connect 49 10 38 0;
#X connect 49 11 39 0;
#X connect 49 12 40 0;
#X connect 49 13 41 0;
#X connect 49 14 42 0;
#X connect 49 15 43 0;
#X connect 49 16 44 0;
#X connect 49 17 45 0;
#X connect 49 18 46 0;
#X connect 49 19 47 0;
#X connect 49 20 48 0;
#X connect 72 0 1 0;
#X connect 72 1 2 0;
#X connect 72 2 10 0;
#X connect 72 3 11 0;
#X connect 72 4 9 0;
#X connect 72 5 12 0;
#X connect 72 6 13 0;
#X connect 72 7 14 0;
#X connect 72 8 15 0;
#X connect 72 9 16 0;
#X connect 72 10 17 0;
#X connect 72 11 18 0;
#X connect 72 12 19 0;
#X connect 72 13 20 0;
#X connect 72 14 21 0;
#X connect 72 15 22 0;
#X connect 72 16 23 0;
#X connect 72 17 24 0;
#X connect 72 18 25 0;
#X connect 72 19 26 0;
#X connect 72 20 27 0;
#X connect 94 0 72 0;
#X connect 95 0 8 0;
#X connect 96 0 49 0;
