#N canvas 0 22 366 349 10;
#X obj 38 78 inlet posx;
#X obj 109 78 inlet posy;
#X obj 38 108 dist, f 36;
#X obj 38 263 map, f 25;
#X floatatom 111 240 5 0 0 0 - - -, f 5;
#X msg 111 192 2;
#X obj 111 218 sqrt;
#X msg 74 193 0;
#X msg 185 191 0;
#X msg 148 192 1;
#X obj 180 78 inlet sx;
#X obj 251 78 inlet sy;
#X obj 38 295 outlet mul;
#X obj 111 136 loadbang;
#X connect 0 0 2 0;
#X connect 1 0 2 1;
#X connect 2 0 3 0;
#X connect 3 0 12 0;
#X connect 4 0 3 2;
#X connect 5 0 6 0;
#X connect 6 0 4 0;
#X connect 7 0 3 1;
#X connect 8 0 3 4;
#X connect 9 0 3 3;
#X connect 10 0 2 2;
#X connect 11 0 2 3;
#X connect 13 0 5 0;
#X connect 13 0 9 0;
#X connect 13 0 8 0;
#X connect 13 0 7 0;
