#N canvas 894 330 929 549 10;
#X obj 188 378 inlet~ sig;
#X msg 340 329 -1;
#X msg 369 329 1;
#X msg 627 332 -1;
#X msg 499 331 1;
#X msg 763 331 -1;
#X msg 734 331 1;
#X msg 598 332 -1;
#X msg 470 331 1;
#X obj 412 41 inlet posx;
#X obj 569 41 inlet posy;
#X obj 188 472 *~, f 16;
#X obj 188 499 outlet~ channel1;
#X floatatom 282 378 5 0 0 0 - - -, f 5;
#X floatatom 412 379 5 0 0 0 - - -, f 5;
#X floatatom 540 379 5 0 0 0 - - -, f 5;
#X floatatom 676 379 5 0 0 0 - - -, f 5;
#X obj 317 472 *~, f 16;
#X obj 317 499 outlet~ channel2;
#X obj 447 472 *~, f 16;
#X obj 582 472 *~, f 16;
#X obj 447 499 outlet~ channel3;
#X obj 582 499 outlet~ channel4;
#X obj 340 297 loadbang;
#X obj 598 300 loadbang;
#X obj 734 299 loadbang;
#X obj 470 293 loadbang;
#X obj 282 353 speaker, f 15;
#X obj 676 354 speaker, f 15;
#X obj 412 354 speaker, f 15;
#X obj 540 354 speaker, f 15;
#X connect 0 0 11 0;
#X connect 0 0 17 0;
#X connect 0 0 19 0;
#X connect 0 0 20 0;
#X connect 1 0 27 2;
#X connect 2 0 27 3;
#X connect 3 0 30 3;
#X connect 4 0 29 3;
#X connect 5 0 28 3;
#X connect 6 0 28 2;
#X connect 7 0 30 2;
#X connect 8 0 29 2;
#X connect 9 0 27 0;
#X connect 9 0 28 0;
#X connect 9 0 29 0;
#X connect 9 0 30 0;
#X connect 10 0 27 1;
#X connect 10 0 28 1;
#X connect 10 0 29 1;
#X connect 10 0 30 1;
#X connect 11 0 12 0;
#X connect 13 0 11 1;
#X connect 14 0 17 1;
#X connect 15 0 19 1;
#X connect 16 0 20 1;
#X connect 17 0 18 0;
#X connect 19 0 21 0;
#X connect 20 0 22 0;
#X connect 23 0 1 0;
#X connect 23 0 2 0;
#X connect 24 0 7 0;
#X connect 24 0 3 0;
#X connect 25 0 6 0;
#X connect 25 0 5 0;
#X connect 26 0 8 0;
#X connect 26 0 4 0;
#X connect 27 0 13 0;
#X connect 28 0 16 0;
#X connect 29 0 14 0;
#X connect 30 0 15 0;
