#N canvas 324 22 1483 1152 10;
#X obj 26 43 player_controls;
#X obj 25 106 r p1_btn_rs;
#X obj 25 148 r p1_btn_r2;
#X obj 25 190 r p1_btn_r1;
#X obj 25 232 r p1_btn_ls;
#X obj 25 274 r p1_btn_l2;
#X obj 25 316 r p1_btn_l1;
#X obj 25 358 r p1_btn_a;
#X obj 25 400 r p1_btn_y;
#X obj 25 442 r p1_btn_b;
#X obj 25 484 r p1_btn_x;
#X obj 25 526 r p1_btn_start;
#X obj 25 568 r p1_btn_home;
#X obj 25 608 r p1_btn_select;
#X obj 25 650 r p1_btn_right;
#X obj 25 692 r p1_btn_left;
#X obj 25 734 r p1_btn_down;
#X obj 25 776 r p1_btn_up;
#X obj 25 818 r p1_ry;
#X obj 25 860 r p1_rx;
#X obj 25 902 r p1_ly;
#X obj 25 944 r p1_lx;
#X obj 129 106 r p2_btn_rs;
#X obj 129 148 r p2_btn_r2;
#X obj 129 190 r p2_btn_r1;
#X obj 129 232 r p2_btn_ls;
#X obj 129 274 r p2_btn_l2;
#X obj 129 316 r p2_btn_l1;
#X obj 129 358 r p2_btn_a;
#X obj 129 400 r p2_btn_y;
#X obj 129 442 r p2_btn_b;
#X obj 129 484 r p2_btn_x;
#X obj 129 526 r p2_btn_start;
#X obj 130 566 r p2_btn_home;
#X obj 130 608 r p2_btn_select;
#X obj 130 650 r p2_btn_right;
#X obj 130 692 r p2_btn_left;
#X obj 130 734 r p2_btn_down;
#X obj 130 776 r p2_btn_up;
#X obj 130 818 r p2_ry;
#X obj 130 860 r p2_rx;
#X obj 130 902 r p2_ly;
#X obj 130 944 r p2_lx;
#X obj 25 128 tgl 15 0 empty empty empty 17 7 0 10 -262144 -1 -1 0
1;
#X obj 25 170 tgl 15 0 empty empty empty 17 7 0 10 -262144 -1 -1 0
1;
#X obj 25 212 tgl 15 0 empty empty empty 17 7 0 10 -262144 -1 -1 0
1;
#X obj 25 254 tgl 15 0 empty empty empty 17 7 0 10 -262144 -1 -1 0
1;
#X obj 25 296 tgl 15 0 empty empty empty 17 7 0 10 -262144 -1 -1 0
1;
#X obj 25 338 tgl 15 0 empty empty empty 17 7 0 10 -262144 -1 -1 0
1;
#X obj 25 380 tgl 15 0 empty empty empty 17 7 0 10 -262144 -1 -1 0
1;
#X obj 25 422 tgl 15 0 empty empty empty 17 7 0 10 -262144 -1 -1 0
1;
#X obj 25 464 tgl 15 0 empty empty empty 17 7 0 10 -262144 -1 -1 0
1;
#X obj 25 506 tgl 15 0 empty empty empty 17 7 0 10 -262144 -1 -1 0
1;
#X obj 25 548 tgl 15 0 empty empty empty 17 7 0 10 -262144 -1 -1 0
1;
#X obj 25 590 tgl 15 0 empty empty empty 17 7 0 10 -262144 -1 -1 0
1;
#X obj 25 630 tgl 15 0 empty empty empty 17 7 0 10 -262144 -1 -1 0
1;
#X obj 25 672 tgl 15 0 empty empty empty 17 7 0 10 -262144 -1 -1 0
1;
#X obj 25 714 tgl 15 0 empty empty empty 17 7 0 10 -262144 -1 -1 0
1;
#X obj 25 756 tgl 15 0 empty empty empty 17 7 0 10 -262144 -1 -1 0
1;
#X obj 25 798 tgl 15 0 empty empty empty 17 7 0 10 -262144 -1 -1 0
1;
#X obj 129 128 tgl 15 0 empty empty empty 17 7 0 10 -262144 -1 -1 0
1;
#X obj 129 170 tgl 15 0 empty empty empty 17 7 0 10 -262144 -1 -1 0
1;
#X floatatom 25 840 5 0 0 0 - - -, f 5;
#X floatatom 25 882 5 0 0 0 - - -, f 5;
#X floatatom 25 924 5 0 0 0 - - -, f 5;
#X floatatom 25 966 5 0 0 0 - - -, f 5;
#X obj 129 212 tgl 15 0 empty empty empty 17 7 0 10 -262144 -1 -1 0
1;
#X obj 129 254 tgl 15 0 empty empty empty 17 7 0 10 -262144 -1 -1 0
1;
#X obj 129 296 tgl 15 0 empty empty empty 17 7 0 10 -262144 -1 -1 0
1;
#X obj 129 338 tgl 15 0 empty empty empty 17 7 0 10 -262144 -1 -1 0
1;
#X obj 129 380 tgl 15 0 empty empty empty 17 7 0 10 -262144 -1 -1 0
1;
#X obj 129 422 tgl 15 0 empty empty empty 17 7 0 10 -262144 -1 -1 0
1;
#X obj 129 464 tgl 15 0 empty empty empty 17 7 0 10 -262144 -1 -1 0
1;
#X obj 129 506 tgl 15 0 empty empty empty 17 7 0 10 -262144 -1 -1 0
1;
#X obj 129 548 tgl 15 0 empty empty empty 17 7 0 10 -262144 -1 -1 0
1;
#X obj 130 588 tgl 15 0 empty empty empty 17 7 0 10 -262144 -1 -1 0
1;
#X obj 130 630 tgl 15 0 empty empty empty 17 7 0 10 -262144 -1 -1 0
1;
#X obj 130 672 tgl 15 0 empty empty empty 17 7 0 10 -262144 -1 -1 0
1;
#X obj 130 714 tgl 15 0 empty empty empty 17 7 0 10 -262144 -1 -1 0
1;
#X obj 130 756 tgl 15 0 empty empty empty 17 7 0 10 -262144 -1 -1 0
1;
#X obj 130 798 tgl 15 0 empty empty empty 17 7 0 10 -262144 -1 -1 0
1;
#X floatatom 130 840 5 0 0 0 - - -, f 5;
#X floatatom 130 882 5 0 0 0 - - -, f 5;
#X floatatom 130 924 5 0 0 0 - - -, f 5;
#X floatatom 130 966 5 0 0 0 - - -, f 5;
#X floatatom 337 343 5 0 0 0 - - -, f 5;
#X obj 376 481 osc~;
#X floatatom 421 255 5 0 0 0 - - -, f 5;
#X floatatom 457 255 5 0 0 0 - - -, f 5;
#X obj 316 313 mtof;
#X obj 14 1304 cospan4, f 12;
#X msg 351 253 -1;
#X msg 386 253 1;
#X obj 351 220 loadbang;
#X obj 633 324 cartasian2polar;
#X floatatom 633 355 5 0 0 0 - - -, f 5;
#X floatatom 720 355 5 0 0 0 - - -, f 5;
#X obj 633 92 vsl 15 128 -1 1 0 0 empty empty empty 0 -9 0 10 -262144
-1 -1 0 1;
#X obj 723 209 hsl 128 15 -1 1 0 0 empty empty empty -2 -8 0 10 -262144
-1 -1 0 1;
#X floatatom 720 297 5 0 0 0 - - -, f 5;
#X floatatom 633 295 5 0 0 0 - - -, f 5;
#X obj 704 235 bng 15 250 50 0 empty empty empty 17 7 0 10 -262144
-1 -1;
#X obj 647 235 bng 15 250 50 0 empty empty empty 17 7 0 10 -262144
-1 -1;
#X obj 720 181 r p1_lx;
#X obj 633 64 r p1_ly;
#X obj 633 473 normalize, f 11;
#X obj 696 443 expr 8*atan(1);
#X msg 664 443 0;
#X obj 664 406 bng 15 250 50 0 empty empty empty 17 7 0 10 -262144
-1 -1;
#X obj 633 591 map, f 25;
#X msg 670 561 0;
#X msg 706 561 1;
#X msg 743 561 0;
#X msg 780 561 4;
#X obj 780 525 bng 15 250 50 0 empty empty empty 17 7 0 10 -262144
-1 -1;
#X obj 317 482 phasor~;
#X obj 317 514 *~ 2;
#X obj 317 546 -~ 1;
#X obj 494 395 vradio 20 1 0 4 empty empty empty 0 -8 0 15 -262144
-1 -1 0;
#X obj 317 573 demux, f 30;
#X obj 435 482 noise~;
#X floatatom 506 485 5 0 0 0 - - -, f 5;
#X text 468 438 osc;
#X text 451 418 phasor;
#X text 455 457 noise;
#X obj 8 2307 cnv 15 1440 30 empty empty SoundSpaceInteraction_2015_MediaTechnologyMScProgramme
5 15 0 14 -99929 -262144 0;
#X floatatom 1137 215 0 0 0 0 - - -;
#X obj 1137 188 + 1;
#X obj 1075 189 float;
#X obj 1151 120 bng 15 250 50 0 empty empty empty 17 7 0 10 -262144
-1 -1;
#X msg 1181 160 -1;
#X obj 1075 119 bng 15 250 50 0 empty empty empty 17 7 0 10 -262144
-1 -1;
#X msg 1152 160 1;
#X text 26 81 Player 1;
#X text 129 80 Player 2;
#X obj 14 1081 channel;
#X obj 27 2028 output;
#X obj 211 1082 channel;
#X obj 397 1082 channel;
#X obj 581 1082 channel;
#X obj 17 1497 channel;
#X obj 209 1498 channel;
#X obj 398 1498 channel;
#X obj 582 1498 channel;
#X obj 114 1997 *~ 1;
#X obj 201 1996 *~ 1;
#X obj 288 1996 *~ 1;
#X obj 375 1995 *~ 1;
#X obj 27 1995 bangDown;
#X obj 1122 456 bangUp;
#X obj 1122 433 r p1_btn_x;
#X obj 1122 482 bng 15 250 50 0 empty empty empty 17 7 0 10 -262144
-1 -1;
#X obj 27 1968 r p1_btn_home;
#X floatatom 633 621 5 0 0 0 - - -, f 5;
#X obj 211 1305 cospan4, f 12;
#X obj 397 1305 cospan4, f 12;
#X obj 581 1305 cospan4, f 12;
#X obj 17 1720 cospan4, f 12;
#X obj 209 1721 cospan4, f 12;
#X obj 398 1721 cospan4, f 12;
#X obj 582 1721 cospan4, f 12;
#X obj 14 1055 r~ c1;
#X obj 124 1055 r pan1;
#X obj 211 1055 r~ c2;
#X obj 321 1055 r pan2;
#X obj 397 1054 r~ c3;
#X obj 507 1053 r pan3;
#X obj 581 1053 r~ c4;
#X obj 691 1053 r pan4;
#X obj 17 1472 r~ c5;
#X obj 127 1471 r pan5;
#X obj 209 1472 r~ c6;
#X obj 398 1473 r~ c7;
#X obj 582 1471 r~ c8;
#X obj 319 1472 r pan6;
#X obj 508 1470 r pan7;
#X obj 692 1469 r pan8;
#X obj 5 6 cnv 15 1440 30 empty empty SoundSpaceInteraction_FinalProject
5 15 0 14 -153956 -262144 0;
#X obj 7 1921 cnv 15 1440 30 empty empty MasterOut 5 15 0 14 -153956
-262144 0;
#X obj 316 282 map, f 24;
#X obj 357 658 r p1_ry;
#X obj 901 697 r p1_rx;
#X obj 904 721 hsl 128 15 -1 1 0 0 empty empty empty -2 -8 0 10 -262144
-1 -1 0 1;
#X obj 510 916 metro;
#X obj 386 913 timebase;
#X obj 114 1968 catch~ out1;
#X obj 201 1969 catch~ out2;
#X obj 288 1970 catch~ out3;
#X obj 375 1967 catch~ out4;
#X obj 14 1418 throw~ out1;
#X obj 50 1396 throw~ out2;
#X obj 87 1373 throw~ out3;
#X obj 124 1350 throw~ out4;
#X obj 211 1420 throw~ out1;
#X obj 247 1398 throw~ out2;
#X obj 284 1375 throw~ out3;
#X obj 321 1352 throw~ out4;
#X obj 8 995 cnv 15 1440 30 empty empty AudioChannels 5 15 0 14 -153956
-262144 0;
#X obj 397 1419 throw~ out1;
#X obj 433 1397 throw~ out2;
#X obj 470 1374 throw~ out3;
#X obj 507 1351 throw~ out4;
#X obj 581 1417 throw~ out1;
#X obj 617 1395 throw~ out2;
#X obj 654 1372 throw~ out3;
#X obj 691 1349 throw~ out4;
#X obj 17 1833 throw~ out1;
#X obj 53 1811 throw~ out2;
#X obj 90 1788 throw~ out3;
#X obj 127 1765 throw~ out4;
#X obj 1151 98 bangup;
#X obj 1075 59 r p1_btn_r2;
#X obj 1151 60 r p1_btn_l2;
#X obj 1075 81 bangup;
#X obj 1137 237 mod 4;
#X floatatom 1137 259 5 0 0 0 - - -, f 5;
#X floatatom 901 741 5 0 0 0 - - -, f 5;
#X floatatom 886 801 0 0 0 0 - - -;
#X obj 886 774 + 1;
#X obj 824 775 float;
#X obj 886 823 mod 100;
#X floatatom 886 845 5 0 0 0 - - -, f 5;
#X floatatom 886 886 5 0 0 0 - - -, f 5;
#X obj 889 920 hsl 128 15 0 4 0 0 empty empty empty -2 -8 0 10 -262144
-1 -1 0 1;
#X obj 824 708 tgl 15 0 empty empty empty 17 7 0 10 -262144 -1 -1 0
1;
#X obj 886 864 / 25;
#X obj 824 728 metro 5;
#X obj 1161 869 dac~ 1 2;
#X obj 1111 779 rev2~, f 17;
#X floatatom 1143 726 5 0 0 0 - - -, f 5;
#X connect 1 0 43 0;
#X connect 2 0 44 0;
#X connect 3 0 45 0;
#X connect 4 0 46 0;
#X connect 5 0 47 0;
#X connect 6 0 48 0;
#X connect 7 0 49 0;
#X connect 8 0 50 0;
#X connect 9 0 51 0;
#X connect 10 0 52 0;
#X connect 11 0 53 0;
#X connect 12 0 54 0;
#X connect 13 0 55 0;
#X connect 14 0 56 0;
#X connect 15 0 57 0;
#X connect 16 0 58 0;
#X connect 17 0 59 0;
#X connect 18 0 62 0;
#X connect 19 0 63 0;
#X connect 20 0 64 0;
#X connect 21 0 65 0;
#X connect 22 0 60 0;
#X connect 23 0 61 0;
#X connect 24 0 66 0;
#X connect 25 0 67 0;
#X connect 26 0 68 0;
#X connect 27 0 69 0;
#X connect 28 0 70 0;
#X connect 29 0 71 0;
#X connect 30 0 72 0;
#X connect 31 0 73 0;
#X connect 32 0 74 0;
#X connect 33 0 75 0;
#X connect 34 0 76 0;
#X connect 35 0 77 0;
#X connect 36 0 78 0;
#X connect 37 0 79 0;
#X connect 38 0 80 0;
#X connect 39 0 81 0;
#X connect 40 0 82 0;
#X connect 41 0 83 0;
#X connect 42 0 84 0;
#X connect 86 0 119 1;
#X connect 87 0 179 3;
#X connect 88 0 179 4;
#X connect 89 0 85 0;
#X connect 89 0 86 0;
#X connect 89 0 115 0;
#X connect 90 0 189 0;
#X connect 90 1 190 0;
#X connect 90 2 191 0;
#X connect 90 3 192 0;
#X connect 91 0 179 1;
#X connect 92 0 179 2;
#X connect 93 0 91 0;
#X connect 93 0 92 0;
#X connect 94 0 95 0;
#X connect 94 1 96 0;
#X connect 95 0 105 0;
#X connect 97 0 100 0;
#X connect 97 0 102 0;
#X connect 98 0 99 0;
#X connect 98 0 101 0;
#X connect 99 0 94 1;
#X connect 100 0 94 0;
#X connect 101 0 100 0;
#X connect 102 0 99 0;
#X connect 103 0 98 0;
#X connect 104 0 97 0;
#X connect 105 0 109 0;
#X connect 106 0 105 2;
#X connect 107 0 105 1;
#X connect 108 0 107 0;
#X connect 108 0 106 0;
#X connect 109 0 153 0;
#X connect 110 0 109 1;
#X connect 111 0 109 2;
#X connect 112 0 109 3;
#X connect 113 0 109 4;
#X connect 114 0 113 0;
#X connect 114 0 112 0;
#X connect 114 0 111 0;
#X connect 114 0 110 0;
#X connect 115 0 116 0;
#X connect 116 0 117 0;
#X connect 117 0 119 0;
#X connect 118 0 119 3;
#X connect 118 0 121 0;
#X connect 120 0 119 2;
#X connect 126 0 214 0;
#X connect 127 0 126 0;
#X connect 127 0 128 1;
#X connect 128 0 127 0;
#X connect 129 0 130 0;
#X connect 129 0 128 0;
#X connect 130 0 127 1;
#X connect 131 0 132 0;
#X connect 131 0 128 0;
#X connect 132 0 127 1;
#X connect 135 0 90 0;
#X connect 137 0 154 0;
#X connect 138 0 155 0;
#X connect 139 0 156 0;
#X connect 140 0 157 0;
#X connect 141 0 158 0;
#X connect 142 0 159 0;
#X connect 143 0 160 0;
#X connect 144 0 136 1;
#X connect 145 0 136 2;
#X connect 146 0 136 3;
#X connect 147 0 136 4;
#X connect 148 0 136 0;
#X connect 149 0 151 0;
#X connect 150 0 149 0;
#X connect 152 0 148 0;
#X connect 154 0 193 0;
#X connect 154 1 194 0;
#X connect 154 2 195 0;
#X connect 154 3 196 0;
#X connect 155 0 198 0;
#X connect 155 1 199 0;
#X connect 155 2 200 0;
#X connect 155 3 201 0;
#X connect 156 0 202 0;
#X connect 156 1 203 0;
#X connect 156 2 204 0;
#X connect 156 3 205 0;
#X connect 157 0 206 0;
#X connect 157 1 207 0;
#X connect 157 2 208 0;
#X connect 157 3 209 0;
#X connect 161 0 135 0;
#X connect 162 0 90 1;
#X connect 163 0 137 0;
#X connect 164 0 154 1;
#X connect 165 0 138 0;
#X connect 166 0 155 1;
#X connect 167 0 139 0;
#X connect 168 0 156 1;
#X connect 169 0 140 0;
#X connect 170 0 157 1;
#X connect 171 0 141 0;
#X connect 172 0 142 0;
#X connect 173 0 143 0;
#X connect 174 0 158 1;
#X connect 175 0 159 1;
#X connect 176 0 160 1;
#X connect 179 0 89 0;
#X connect 181 0 182 0;
#X connect 182 0 216 0;
#X connect 185 0 144 0;
#X connect 186 0 145 0;
#X connect 187 0 146 0;
#X connect 188 0 147 0;
#X connect 210 0 129 0;
#X connect 211 0 213 0;
#X connect 212 0 210 0;
#X connect 213 0 131 0;
#X connect 214 0 215 0;
#X connect 215 0 118 0;
#X connect 216 0 218 1;
#X connect 217 0 220 0;
#X connect 218 0 217 0;
#X connect 218 0 219 1;
#X connect 219 0 218 0;
#X connect 220 0 221 0;
#X connect 221 0 225 0;
#X connect 222 0 223 0;
#X connect 224 0 226 0;
#X connect 225 0 222 0;
#X connect 226 0 219 0;
#X connect 228 0 227 0;
#X connect 228 1 227 1;
#X connect 229 0 228 1;
