#N canvas 321 22 1483 1152 10;
#X obj 26 43 player_controls;
#X obj 25 106 r p1_btn_rs;
#X obj 25 148 r p1_btn_r2;
#X obj 25 190 r p1_btn_r1;
#X obj 25 232 r p1_btn_ls;
#X obj 25 274 r p1_btn_l2;
#X obj 25 316 r p1_btn_l1;
#X obj 25 358 r p1_btn_a;
#X obj 25 400 r p1_btn_y;
#X obj 25 442 r p1_btn_b;
#X obj 25 484 r p1_btn_x;
#X obj 25 526 r p1_btn_start;
#X obj 25 568 r p1_btn_home;
#X obj 25 608 r p1_btn_select;
#X obj 25 650 r p1_btn_right;
#X obj 25 692 r p1_btn_left;
#X obj 25 734 r p1_btn_down;
#X obj 25 776 r p1_btn_up;
#X obj 25 818 r p1_ry;
#X obj 25 860 r p1_rx;
#X obj 25 902 r p1_ly;
#X obj 25 944 r p1_lx;
#X obj 129 106 r p2_btn_rs;
#X obj 129 148 r p2_btn_r2;
#X obj 129 190 r p2_btn_r1;
#X obj 129 232 r p2_btn_ls;
#X obj 129 274 r p2_btn_l2;
#X obj 129 316 r p2_btn_l1;
#X obj 129 358 r p2_btn_a;
#X obj 129 400 r p2_btn_y;
#X obj 129 442 r p2_btn_b;
#X obj 129 484 r p2_btn_x;
#X obj 129 526 r p2_btn_start;
#X obj 130 566 r p2_btn_home;
#X obj 130 608 r p2_btn_select;
#X obj 130 650 r p2_btn_right;
#X obj 130 692 r p2_btn_left;
#X obj 130 734 r p2_btn_down;
#X obj 130 776 r p2_btn_up;
#X obj 130 818 r p2_ry;
#X obj 130 860 r p2_rx;
#X obj 130 902 r p2_ly;
#X obj 130 944 r p2_lx;
#X obj 25 128 tgl 15 0 empty empty empty 17 7 0 10 -262144 -1 -1 0
1;
#X obj 25 170 tgl 15 0 empty empty empty 17 7 0 10 -262144 -1 -1 0
1;
#X obj 25 212 tgl 15 0 empty empty empty 17 7 0 10 -262144 -1 -1 0
1;
#X obj 25 254 tgl 15 0 empty empty empty 17 7 0 10 -262144 -1 -1 0
1;
#X obj 25 296 tgl 15 0 empty empty empty 17 7 0 10 -262144 -1 -1 0
1;
#X obj 25 338 tgl 15 0 empty empty empty 17 7 0 10 -262144 -1 -1 0
1;
#X obj 25 380 tgl 15 0 empty empty empty 17 7 0 10 -262144 -1 -1 0
1;
#X obj 25 422 tgl 15 0 empty empty empty 17 7 0 10 -262144 -1 -1 0
1;
#X obj 25 464 tgl 15 0 empty empty empty 17 7 0 10 -262144 -1 -1 0
1;
#X obj 25 506 tgl 15 0 empty empty empty 17 7 0 10 -262144 -1 -1 0
1;
#X obj 25 548 tgl 15 0 empty empty empty 17 7 0 10 -262144 -1 -1 0
1;
#X obj 25 590 tgl 15 0 empty empty empty 17 7 0 10 -262144 -1 -1 0
1;
#X obj 25 630 tgl 15 0 empty empty empty 17 7 0 10 -262144 -1 -1 0
1;
#X obj 25 672 tgl 15 0 empty empty empty 17 7 0 10 -262144 -1 -1 0
1;
#X obj 25 714 tgl 15 0 empty empty empty 17 7 0 10 -262144 -1 -1 0
1;
#X obj 25 756 tgl 15 0 empty empty empty 17 7 0 10 -262144 -1 -1 0
1;
#X obj 25 798 tgl 15 0 empty empty empty 17 7 0 10 -262144 -1 -1 0
1;
#X obj 129 128 tgl 15 0 empty empty empty 17 7 0 10 -262144 -1 -1 0
1;
#X obj 129 170 tgl 15 0 empty empty empty 17 7 0 10 -262144 -1 -1 0
1;
#X floatatom 25 840 5 0 0 0 - - -, f 5;
#X floatatom 25 882 5 0 0 0 - - -, f 5;
#X floatatom 25 924 5 0 0 0 - - -, f 5;
#X floatatom 25 966 5 0 0 0 - - -, f 5;
#X obj 129 212 tgl 15 0 empty empty empty 17 7 0 10 -262144 -1 -1 0
1;
#X obj 129 254 tgl 15 0 empty empty empty 17 7 0 10 -262144 -1 -1 0
1;
#X obj 129 296 tgl 15 0 empty empty empty 17 7 0 10 -262144 -1 -1 0
1;
#X obj 129 338 tgl 15 0 empty empty empty 17 7 0 10 -262144 -1 -1 0
1;
#X obj 129 380 tgl 15 0 empty empty empty 17 7 0 10 -262144 -1 -1 0
1;
#X obj 129 422 tgl 15 0 empty empty empty 17 7 0 10 -262144 -1 -1 0
1;
#X obj 129 464 tgl 15 0 empty empty empty 17 7 0 10 -262144 -1 -1 0
1;
#X obj 129 506 tgl 15 0 empty empty empty 17 7 0 10 -262144 -1 -1 0
1;
#X obj 129 548 tgl 15 0 empty empty empty 17 7 0 10 -262144 -1 -1 0
1;
#X obj 130 588 tgl 15 0 empty empty empty 17 7 0 10 -262144 -1 -1 0
1;
#X obj 130 630 tgl 15 0 empty empty empty 17 7 0 10 -262144 -1 -1 0
1;
#X obj 130 672 tgl 15 0 empty empty empty 17 7 0 10 -262144 -1 -1 0
1;
#X obj 130 714 tgl 15 0 empty empty empty 17 7 0 10 -262144 -1 -1 0
1;
#X obj 130 756 tgl 15 0 empty empty empty 17 7 0 10 -262144 -1 -1 0
1;
#X obj 130 798 tgl 15 0 empty empty empty 17 7 0 10 -262144 -1 -1 0
1;
#X floatatom 130 840 5 0 0 0 - - -, f 5;
#X floatatom 130 882 5 0 0 0 - - -, f 5;
#X floatatom 130 924 5 0 0 0 - - -, f 5;
#X floatatom 130 966 5 0 0 0 - - -, f 5;
#X obj 8 2607 cnv 15 1440 30 empty empty SoundSpaceInteraction_2015_MediaTechnologyMScProgramme
5 15 0 14 -99929 -262144 0;
#X text 26 81 Player 1;
#X text 129 80 Player 2;
#X obj 1656 1080 channel;
#X obj 27 2328 output;
#X obj 114 2297 *~ 1;
#X obj 201 2296 *~ 1;
#X obj 288 2296 *~ 1;
#X obj 375 2295 *~ 1;
#X obj 27 2295 bangDown;
#X obj 27 2268 r p1_btn_home;
#X obj 1478 1116 r pan1;
#X obj 5 6 cnv 15 1440 30 empty empty SoundSpaceInteraction_FinalProject
5 15 0 14 -153956 -262144 0;
#X obj 7 2221 cnv 15 1440 30 empty empty MasterOut 5 15 0 14 -153956
-262144 0;
#X obj 114 2268 catch~ out1;
#X obj 201 2269 catch~ out2;
#X obj 288 2270 catch~ out3;
#X obj 375 2267 catch~ out4;
#X obj 1560 1433 throw~ out1;
#X obj 1596 1411 throw~ out2;
#X obj 1633 1388 throw~ out3;
#X obj 1670 1365 throw~ out4;
#X obj 8 995 cnv 15 1440 30 empty empty Sounds 5 15 0 14 -153956 -262144
0;
#X obj 245 54 tgl 15 0 empty empty empty 17 7 0 10 -262144 -1 -1 1
1;
#X obj 245 74 s toggleSticks;
#X obj 748 117 cnv 15 500 800 empty empty empty 20 12 0 14 -204800
-66577 0;
#X obj 218 116 cnv 15 500 800 empty empty empty 20 12 0 14 -261682
-66577 0;
#X obj 323 666 bng 15 250 50 0 empty empty empty 17 7 0 10 -262144
-1 -1;
#X obj 247 665 bng 15 250 50 0 empty empty empty 17 7 0 10 -262144
-1 -1;
#X obj 323 644 bangup;
#X obj 247 605 r p1_btn_r2;
#X obj 323 606 r p1_btn_l2;
#X obj 247 627 bangup;
#X obj 399 297 r p1_pan_r;
#X obj 399 325 multipan4;
#X floatatom 477 298 5 0 0 1 Period - -, f 5;
#X obj 242 320 multipan4;
#X floatatom 320 293 5 0 0 1 Period - -, f 5;
#X obj 242 292 r p1_pan_l;
#X msg 320 271 100;
#X msg 477 277 50;
#X obj 431 175 r p1_rx;
#X obj 374 227 s p1_pan_r;
#X obj 248 224 s p1_pan_l;
#X obj 248 147 r toggleSticks;
#X obj 374 150 r toggleSticks;
#X obj 305 172 r p1_lx;
#X obj 248 198 stickStuff;
#X obj 374 202 stickStuff;
#X obj 1268 156 timebase;
#X obj 757 162 r toggleSticks;
#X obj 888 162 r toggleSticks;
#X obj 757 239 s p2_pan_l;
#X obj 888 236 s p2_pan_r;
#X obj 888 210 stickStuff;
#X obj 757 215 stickStuff;
#X obj 814 188 r p2_rx;
#X obj 945 184 r p2_lx;
#X obj 917 338 multipan4;
#X floatatom 995 311 5 0 0 1 Period - -, f 5;
#X obj 760 333 multipan4;
#X floatatom 838 306 5 0 0 1 Period - -, f 5;
#X msg 838 284 100;
#X msg 995 290 50;
#X obj 760 305 r p2_pan_l;
#X obj 917 310 r p2_pan_r;
#X obj 248 434 r p1_btn_y;
#X obj 248 456 bangUp;
#X obj 248 488 bng 15 250 50 0 empty empty empty 17 7 0 10 -262144
-1 -1;
#X obj 415 460 bangUp;
#X obj 415 492 bng 15 250 50 0 empty empty empty 17 7 0 10 -262144
-1 -1;
#X obj 513 460 bangUp;
#X obj 513 492 bng 15 250 50 0 empty empty empty 17 7 0 10 -262144
-1 -1;
#X obj 325 458 bangUp;
#X obj 325 490 bng 15 250 50 0 empty empty empty 17 7 0 10 -262144
-1 -1;
#X obj 765 470 bangUp;
#X obj 765 502 bng 15 250 50 0 empty empty empty 17 7 0 10 -262144
-1 -1;
#X obj 931 472 bangUp;
#X obj 931 504 bng 15 250 50 0 empty empty empty 17 7 0 10 -262144
-1 -1;
#X obj 1029 472 bangUp;
#X obj 1029 504 bng 15 250 50 0 empty empty empty 17 7 0 10 -262144
-1 -1;
#X obj 841 470 bangUp;
#X obj 841 502 bng 15 250 50 0 empty empty empty 17 7 0 10 -262144
-1 -1;
#X obj 325 436 r p1_btn_x;
#X obj 415 438 r p1_btn_b;
#X obj 513 438 r p1_btn_a;
#X obj 765 448 r p2_btn_y;
#X obj 841 448 r p2_btn_x;
#X obj 931 450 r p2_btn_b;
#X obj 1029 450 r p2_btn_a;
#X obj 948 1564 multisampleLooper;
#X obj 973 1420 bng 15 250 50 0 empty empty empty 17 7 0 10 -262144
-1 -1;
#X msg 1047 1462 lib/loops/submarine/submarine.Ls.aif;
#X msg 1022 1486 lib/loops/submarine/submarine.Rs.aif;
#X msg 997 1509 lib/loops/submarine/submarine.R.aif;
#X msg 972 1533 lib/loops/submarine/submarine.L.aif;
#X obj 948 1535 tgl 15 0 empty empty empty 17 7 0 10 -262144 -1 -1
1 1;
#X obj 15 1247 multisampleOneShot;
#X obj 41 1126 bng 15 250 50 0 empty empty empty 17 7 0 10 -262144
-1 -1;
#X obj 15 1126 bng 15 250 50 0 empty empty empty 17 7 0 10 -262144
-1 -1;
#X msg 120 1141 lib/oneshot/combophone/combophone.Ls.aif;
#X msg 93 1165 lib/oneshot/combophone/combophone.Rs.aif;
#X msg 67 1188 lib/oneshot/combophone/combophone.R.aif;
#X msg 41 1212 lib/oneshot/combophone/combophone.L.aif;
#X obj 41 1101 r loadAudio;
#X obj 392 52 bng 15 250 50 0 empty empty empty 17 7 0 10 -262144 -1
-1;
#X obj 392 72 s loadAudio;
#X obj 385 1244 multisampleOneShot;
#X obj 411 1123 bng 15 250 50 0 empty empty empty 17 7 0 10 -262144
-1 -1;
#X obj 385 1123 bng 15 250 50 0 empty empty empty 17 7 0 10 -262144
-1 -1;
#X obj 411 1098 r loadAudio;
#X msg 490 1138 lib/oneshot/bioattack/bioattack.Ls.aif;
#X msg 463 1162 lib/oneshot/bioattack/bioattack.Rs.aif;
#X msg 437 1185 lib/oneshot/bioattack/bioattack.R.aif;
#X msg 411 1209 lib/oneshot/bioattack/bioattack.L.aif;
#X obj 743 1245 multisampleOneShot;
#X obj 769 1124 bng 15 250 50 0 empty empty empty 17 7 0 10 -262144
-1 -1;
#X obj 743 1124 bng 15 250 50 0 empty empty empty 17 7 0 10 -262144
-1 -1;
#X obj 769 1099 r loadAudio;
#X msg 848 1139 lib/oneshot/harm/harm.Ls.aif;
#X msg 821 1163 lib/oneshot/harm/harm.Rs.aif;
#X msg 795 1186 lib/oneshot/harm/harm.R.aif;
#X msg 769 1210 lib/oneshot/harm/harm.L.aif;
#X obj 1036 1240 multisampleOneShot;
#X obj 1062 1119 bng 15 250 50 0 empty empty empty 17 7 0 10 -262144
-1 -1;
#X obj 1036 1119 bng 15 250 50 0 empty empty empty 17 7 0 10 -262144
-1 -1;
#X obj 1062 1094 r loadAudio;
#X msg 1141 1134 lib/oneshot/osmosis/osmosis.Ls.aif;
#X msg 1114 1158 lib/oneshot/osmosis/osmosis.Rs.aif;
#X msg 1088 1181 lib/oneshot/osmosis/osmosis.R.aif;
#X msg 1062 1205 lib/oneshot/osmosis/osmosis.L.aif;
#X obj 15 1373 throw~ out1;
#X obj 50 1350 throw~ out2;
#X obj 248 508 s p1by;
#X obj 15 1064 r p1by;
#X obj 85 1326 throw~ out3;
#X obj 120 1303 throw~ out4;
#X obj 384 1368 throw~ out1;
#X obj 420 1345 throw~ out2;
#X obj 455 1321 throw~ out3;
#X obj 490 1298 throw~ out4;
#X obj 741 1373 throw~ out1;
#X obj 776 1350 throw~ out2;
#X obj 811 1326 throw~ out3;
#X obj 846 1303 throw~ out4;
#X obj 1034 1370 throw~ out1;
#X obj 1069 1347 throw~ out2;
#X obj 1106 1323 throw~ out3;
#X obj 1141 1300 throw~ out4;
#X obj 325 510 s p1bx;
#X obj 415 512 s p1bb;
#X obj 513 512 s p1ba;
#X obj 385 1066 r p1bx;
#X obj 743 1060 r p1bb;
#X obj 1036 1063 r p1ba;
#X obj 15 1617 multisampleOneShot;
#X obj 41 1496 bng 15 250 50 0 empty empty empty 17 7 0 10 -262144
-1 -1;
#X obj 15 1496 bng 15 250 50 0 empty empty empty 17 7 0 10 -262144
-1 -1;
#X obj 41 1471 r loadAudio;
#X obj 378 1612 multisampleOneShot;
#X obj 404 1491 bng 15 250 50 0 empty empty empty 17 7 0 10 -262144
-1 -1;
#X obj 378 1491 bng 15 250 50 0 empty empty empty 17 7 0 10 -262144
-1 -1;
#X obj 404 1466 r loadAudio;
#X obj 13 1745 throw~ out1;
#X obj 48 1722 throw~ out2;
#X obj 83 1698 throw~ out3;
#X obj 118 1675 throw~ out4;
#X obj 376 1742 throw~ out1;
#X obj 411 1719 throw~ out2;
#X obj 448 1695 throw~ out3;
#X obj 483 1672 throw~ out4;
#X obj 15 1432 r p1bl2;
#X obj 378 1435 r p1br2;
#X obj 323 686 s p1bl2;
#X obj 247 685 s p1br2;
#X msg 120 1511 lib/oneshot/pillers/pillers.Ls.aif;
#X msg 93 1535 lib/oneshot/pillers/pillers.Rs.aif;
#X msg 67 1558 lib/oneshot/pillers/pillers.R.aif;
#X msg 41 1582 lib/oneshot/pillers/pillers.L.aif;
#X msg 483 1506 lib/oneshot/ravenholm/ravenholm.Ls.aif;
#X msg 456 1530 lib/oneshot/ravenholm/ravenholm.Rs.aif;
#X msg 430 1553 lib/oneshot/ravenholm/ravenholm.R.aif;
#X msg 404 1577 lib/oneshot/ravenholm/ravenholm.L.aif;
#X obj 1324 1577 multipan4;
#X floatatom 1402 1550 5 0 0 1 Period - -, f 5;
#X obj 1324 1549 r p1_pan_l;
#X obj 841 1901 throw~ out1;
#X obj 914 1856 throw~ out3;
#X obj 877 1878 throw~ out2;
#X obj 951 1828 throw~ out4;
#X obj 841 1744 cospan4, f 12;
#X obj 1416 1748 cospan4, f 12;
#X obj 1472 1312 cospan4, f 12;
#X obj 1027 1746 cospan4, f 12;
#X obj 1225 1748 cospan4, f 12;
#X obj 1025 1900 throw~ out1;
#X obj 1098 1855 throw~ out3;
#X obj 1061 1877 throw~ out2;
#X obj 1135 1827 throw~ out4;
#X obj 1198 1896 throw~ out1;
#X obj 1271 1851 throw~ out3;
#X obj 1234 1873 throw~ out2;
#X obj 1308 1823 throw~ out4;
#X obj 1404 1897 throw~ out1;
#X obj 1477 1852 throw~ out3;
#X obj 1440 1874 throw~ out2;
#X obj 1514 1824 throw~ out4;
#X obj 1654 1744 multisampleLooper;
#X obj 1679 1600 bng 15 250 50 0 empty empty empty 17 7 0 10 -262144
-1 -1;
#X obj 1654 1715 tgl 15 0 empty empty empty 17 7 0 10 -262144 -1 -1
1 1;
#X obj 2030 1757 multipan4;
#X floatatom 2108 1730 5 0 0 1 Period - -, f 5;
#X obj 1547 2081 throw~ out1;
#X obj 1620 2036 throw~ out3;
#X obj 1583 2058 throw~ out2;
#X obj 1657 2008 throw~ out4;
#X obj 1547 1924 cospan4, f 12;
#X obj 2122 1928 cospan4, f 12;
#X obj 1733 1926 cospan4, f 12;
#X obj 1931 1928 cospan4, f 12;
#X obj 1731 2080 throw~ out1;
#X obj 1804 2035 throw~ out3;
#X obj 1767 2057 throw~ out2;
#X obj 1841 2007 throw~ out4;
#X obj 1904 2076 throw~ out1;
#X obj 1977 2031 throw~ out3;
#X obj 1940 2053 throw~ out2;
#X obj 2014 2003 throw~ out4;
#X obj 2110 2077 throw~ out1;
#X obj 2183 2032 throw~ out3;
#X obj 2146 2054 throw~ out2;
#X obj 2220 2004 throw~ out4;
#X obj 2030 1729 r p1_pan_r;
#X msg 1753 1642 lib/loops/birdsolo/birdsolo.Ls.aif;
#X msg 1728 1666 lib/loops/birdsolo/birdsolo.Rs.aif;
#X msg 1703 1689 lib/loops/birdsolo/birdsolo.R.aif;
#X msg 1678 1713 lib/loops/birdsolo/birdsolo.L.aif;
#X msg 2108 1708 800;
#X msg 1402 1528 1600;
#X connect 1 0 43 0;
#X connect 2 0 44 0;
#X connect 3 0 45 0;
#X connect 4 0 46 0;
#X connect 5 0 47 0;
#X connect 6 0 48 0;
#X connect 7 0 49 0;
#X connect 8 0 50 0;
#X connect 9 0 51 0;
#X connect 10 0 52 0;
#X connect 11 0 53 0;
#X connect 12 0 54 0;
#X connect 13 0 55 0;
#X connect 14 0 56 0;
#X connect 15 0 57 0;
#X connect 16 0 58 0;
#X connect 17 0 59 0;
#X connect 18 0 62 0;
#X connect 19 0 63 0;
#X connect 20 0 64 0;
#X connect 21 0 65 0;
#X connect 22 0 60 0;
#X connect 23 0 61 0;
#X connect 24 0 66 0;
#X connect 25 0 67 0;
#X connect 26 0 68 0;
#X connect 27 0 69 0;
#X connect 28 0 70 0;
#X connect 29 0 71 0;
#X connect 30 0 72 0;
#X connect 31 0 73 0;
#X connect 32 0 74 0;
#X connect 33 0 75 0;
#X connect 34 0 76 0;
#X connect 35 0 77 0;
#X connect 36 0 78 0;
#X connect 37 0 79 0;
#X connect 38 0 80 0;
#X connect 39 0 81 0;
#X connect 40 0 82 0;
#X connect 41 0 83 0;
#X connect 42 0 84 0;
#X connect 88 0 277 1;
#X connect 90 0 89 1;
#X connect 91 0 89 2;
#X connect 92 0 89 3;
#X connect 93 0 89 4;
#X connect 94 0 89 0;
#X connect 95 0 94 0;
#X connect 96 0 277 0;
#X connect 99 0 90 0;
#X connect 100 0 91 0;
#X connect 101 0 92 0;
#X connect 102 0 93 0;
#X connect 108 0 109 0;
#X connect 112 0 258 0;
#X connect 113 0 259 0;
#X connect 114 0 112 0;
#X connect 115 0 117 0;
#X connect 116 0 114 0;
#X connect 117 0 113 0;
#X connect 118 0 119 0;
#X connect 120 0 119 1;
#X connect 122 0 121 1;
#X connect 123 0 121 0;
#X connect 124 0 122 0;
#X connect 125 0 120 0;
#X connect 126 0 133 1;
#X connect 129 0 132 0;
#X connect 130 0 133 0;
#X connect 131 0 132 1;
#X connect 132 0 128 0;
#X connect 133 0 127 0;
#X connect 135 0 140 0;
#X connect 136 0 139 0;
#X connect 139 0 138 0;
#X connect 140 0 137 0;
#X connect 141 0 140 1;
#X connect 142 0 139 1;
#X connect 144 0 143 1;
#X connect 146 0 145 1;
#X connect 147 0 146 0;
#X connect 148 0 144 0;
#X connect 149 0 145 0;
#X connect 150 0 143 0;
#X connect 151 0 152 0;
#X connect 152 0 153 0;
#X connect 153 0 218 0;
#X connect 154 0 155 0;
#X connect 155 0 235 0;
#X connect 156 0 157 0;
#X connect 157 0 236 0;
#X connect 158 0 159 0;
#X connect 159 0 234 0;
#X connect 160 0 161 0;
#X connect 162 0 163 0;
#X connect 164 0 165 0;
#X connect 166 0 167 0;
#X connect 168 0 158 0;
#X connect 169 0 154 0;
#X connect 170 0 156 0;
#X connect 171 0 160 0;
#X connect 172 0 166 0;
#X connect 173 0 162 0;
#X connect 174 0 164 0;
#X connect 175 0 275 0;
#X connect 175 1 278 0;
#X connect 175 2 279 0;
#X connect 175 3 276 0;
#X connect 176 0 177 0;
#X connect 176 0 178 0;
#X connect 176 0 179 0;
#X connect 176 0 180 0;
#X connect 177 0 175 4;
#X connect 178 0 175 3;
#X connect 179 0 175 2;
#X connect 180 0 175 1;
#X connect 181 0 175 0;
#X connect 182 0 216 0;
#X connect 182 1 217 0;
#X connect 182 2 220 0;
#X connect 182 3 221 0;
#X connect 183 0 188 0;
#X connect 183 0 187 0;
#X connect 183 0 186 0;
#X connect 183 0 185 0;
#X connect 184 0 182 0;
#X connect 185 0 182 4;
#X connect 186 0 182 3;
#X connect 187 0 182 2;
#X connect 188 0 182 1;
#X connect 189 0 183 0;
#X connect 190 0 191 0;
#X connect 192 0 222 0;
#X connect 192 1 223 0;
#X connect 192 2 224 0;
#X connect 192 3 225 0;
#X connect 193 0 199 0;
#X connect 193 0 198 0;
#X connect 193 0 197 0;
#X connect 193 0 196 0;
#X connect 194 0 192 0;
#X connect 195 0 193 0;
#X connect 196 0 192 4;
#X connect 197 0 192 3;
#X connect 198 0 192 2;
#X connect 199 0 192 1;
#X connect 200 0 226 0;
#X connect 200 1 227 0;
#X connect 200 2 228 0;
#X connect 200 3 229 0;
#X connect 201 0 207 0;
#X connect 201 0 206 0;
#X connect 201 0 205 0;
#X connect 201 0 204 0;
#X connect 202 0 200 0;
#X connect 203 0 201 0;
#X connect 204 0 200 4;
#X connect 205 0 200 3;
#X connect 206 0 200 2;
#X connect 207 0 200 1;
#X connect 208 0 230 0;
#X connect 208 1 231 0;
#X connect 208 2 232 0;
#X connect 208 3 233 0;
#X connect 209 0 215 0;
#X connect 209 0 214 0;
#X connect 209 0 213 0;
#X connect 209 0 212 0;
#X connect 210 0 208 0;
#X connect 211 0 209 0;
#X connect 212 0 208 4;
#X connect 213 0 208 3;
#X connect 214 0 208 2;
#X connect 215 0 208 1;
#X connect 219 0 184 0;
#X connect 237 0 194 0;
#X connect 238 0 202 0;
#X connect 239 0 210 0;
#X connect 240 0 248 0;
#X connect 240 1 249 0;
#X connect 240 2 250 0;
#X connect 240 3 251 0;
#X connect 241 0 263 0;
#X connect 241 0 262 0;
#X connect 241 0 261 0;
#X connect 241 0 260 0;
#X connect 242 0 240 0;
#X connect 243 0 241 0;
#X connect 244 0 252 0;
#X connect 244 1 253 0;
#X connect 244 2 254 0;
#X connect 244 3 255 0;
#X connect 245 0 267 0;
#X connect 245 0 266 0;
#X connect 245 0 265 0;
#X connect 245 0 264 0;
#X connect 246 0 244 0;
#X connect 247 0 245 0;
#X connect 256 0 242 0;
#X connect 257 0 246 0;
#X connect 260 0 240 4;
#X connect 261 0 240 3;
#X connect 262 0 240 2;
#X connect 263 0 240 1;
#X connect 264 0 244 4;
#X connect 265 0 244 3;
#X connect 266 0 244 2;
#X connect 267 0 244 1;
#X connect 268 0 275 1;
#X connect 268 0 278 1;
#X connect 268 0 279 1;
#X connect 268 3 276 1;
#X connect 269 0 268 1;
#X connect 270 0 268 0;
#X connect 275 0 271 0;
#X connect 275 1 273 0;
#X connect 275 2 272 0;
#X connect 275 3 274 0;
#X connect 276 0 288 0;
#X connect 276 1 290 0;
#X connect 276 2 289 0;
#X connect 276 3 291 0;
#X connect 277 0 103 0;
#X connect 277 1 104 0;
#X connect 277 2 105 0;
#X connect 277 3 106 0;
#X connect 278 0 280 0;
#X connect 278 1 282 0;
#X connect 278 2 281 0;
#X connect 278 3 283 0;
#X connect 279 0 284 0;
#X connect 279 1 286 0;
#X connect 279 2 285 0;
#X connect 279 3 287 0;
#X connect 292 0 301 0;
#X connect 292 1 303 0;
#X connect 292 2 304 0;
#X connect 292 3 302 0;
#X connect 293 0 318 0;
#X connect 293 0 319 0;
#X connect 293 0 320 0;
#X connect 293 0 321 0;
#X connect 294 0 292 0;
#X connect 295 0 301 1;
#X connect 295 0 303 1;
#X connect 295 0 304 1;
#X connect 295 3 302 1;
#X connect 296 0 295 1;
#X connect 301 0 297 0;
#X connect 301 1 299 0;
#X connect 301 2 298 0;
#X connect 301 3 300 0;
#X connect 302 0 313 0;
#X connect 302 1 315 0;
#X connect 302 2 314 0;
#X connect 302 3 316 0;
#X connect 303 0 305 0;
#X connect 303 1 307 0;
#X connect 303 2 306 0;
#X connect 303 3 308 0;
#X connect 304 0 309 0;
#X connect 304 1 311 0;
#X connect 304 2 310 0;
#X connect 304 3 312 0;
#X connect 317 0 295 0;
#X connect 318 0 292 4;
#X connect 319 0 292 3;
#X connect 320 0 292 2;
#X connect 321 0 292 1;
#X connect 322 0 296 0;
#X connect 323 0 269 0;
