#N canvas 78 22 1471 1141 10;
#X obj 26 43 player_controls;
#X obj 25 106 r p1_btn_rs;
#X obj 25 148 r p1_btn_r2;
#X obj 25 190 r p1_btn_r1;
#X obj 25 232 r p1_btn_ls;
#X obj 25 274 r p1_btn_l2;
#X obj 25 316 r p1_btn_l1;
#X obj 25 358 r p1_btn_a;
#X obj 25 400 r p1_btn_y;
#X obj 25 442 r p1_btn_b;
#X obj 25 484 r p1_btn_x;
#X obj 25 526 r p1_btn_start;
#X obj 25 568 r p1_btn_home;
#X obj 25 608 r p1_btn_select;
#X obj 25 650 r p1_btn_right;
#X obj 25 692 r p1_btn_left;
#X obj 25 734 r p1_btn_down;
#X obj 25 776 r p1_btn_up;
#X obj 25 818 r p1_ry;
#X obj 25 860 r p1_rx;
#X obj 25 902 r p1_ly;
#X obj 25 944 r p1_lx;
#X obj 129 106 r p2_btn_rs;
#X obj 129 148 r p2_btn_r2;
#X obj 129 190 r p2_btn_r1;
#X obj 129 232 r p2_btn_ls;
#X obj 129 274 r p2_btn_l2;
#X obj 129 316 r p2_btn_l1;
#X obj 129 358 r p2_btn_a;
#X obj 129 400 r p2_btn_y;
#X obj 129 442 r p2_btn_b;
#X obj 129 484 r p2_btn_x;
#X obj 129 526 r p2_btn_start;
#X obj 130 566 r p2_btn_home;
#X obj 130 608 r p2_btn_select;
#X obj 130 650 r p2_btn_right;
#X obj 130 692 r p2_btn_left;
#X obj 130 734 r p2_btn_down;
#X obj 130 776 r p2_btn_up;
#X obj 130 818 r p2_ry;
#X obj 130 860 r p2_rx;
#X obj 130 902 r p2_ly;
#X obj 130 944 r p2_lx;
#X obj 25 128 tgl 15 0 empty empty empty 17 7 0 10 -262144 -1 -1 0
1;
#X obj 25 170 tgl 15 0 empty empty empty 17 7 0 10 -262144 -1 -1 0
1;
#X obj 25 212 tgl 15 0 empty empty empty 17 7 0 10 -262144 -1 -1 0
1;
#X obj 25 254 tgl 15 0 empty empty empty 17 7 0 10 -262144 -1 -1 0
1;
#X obj 25 296 tgl 15 0 empty empty empty 17 7 0 10 -262144 -1 -1 0
1;
#X obj 25 338 tgl 15 0 empty empty empty 17 7 0 10 -262144 -1 -1 0
1;
#X obj 25 380 tgl 15 0 empty empty empty 17 7 0 10 -262144 -1 -1 0
1;
#X obj 25 422 tgl 15 0 empty empty empty 17 7 0 10 -262144 -1 -1 0
1;
#X obj 25 464 tgl 15 0 empty empty empty 17 7 0 10 -262144 -1 -1 0
1;
#X obj 25 506 tgl 15 0 empty empty empty 17 7 0 10 -262144 -1 -1 0
1;
#X obj 25 548 tgl 15 0 empty empty empty 17 7 0 10 -262144 -1 -1 0
1;
#X obj 25 590 tgl 15 0 empty empty empty 17 7 0 10 -262144 -1 -1 0
1;
#X obj 25 630 tgl 15 0 empty empty empty 17 7 0 10 -262144 -1 -1 0
1;
#X obj 25 672 tgl 15 0 empty empty empty 17 7 0 10 -262144 -1 -1 0
1;
#X obj 25 714 tgl 15 0 empty empty empty 17 7 0 10 -262144 -1 -1 0
1;
#X obj 25 756 tgl 15 0 empty empty empty 17 7 0 10 -262144 -1 -1 0
1;
#X obj 25 798 tgl 15 0 empty empty empty 17 7 0 10 -262144 -1 -1 0
1;
#X obj 129 128 tgl 15 0 empty empty empty 17 7 0 10 -262144 -1 -1 0
1;
#X obj 129 170 tgl 15 0 empty empty empty 17 7 0 10 -262144 -1 -1 0
1;
#X floatatom 25 840 5 0 0 0 - - -, f 5;
#X floatatom 25 882 5 0 0 0 - - -, f 5;
#X floatatom 25 924 5 0 0 0 - - -, f 5;
#X floatatom 25 966 5 0 0 0 - - -, f 5;
#X obj 129 212 tgl 15 0 empty empty empty 17 7 0 10 -262144 -1 -1 0
1;
#X obj 129 254 tgl 15 0 empty empty empty 17 7 0 10 -262144 -1 -1 0
1;
#X obj 129 296 tgl 15 0 empty empty empty 17 7 0 10 -262144 -1 -1 0
1;
#X obj 129 338 tgl 15 0 empty empty empty 17 7 0 10 -262144 -1 -1 0
1;
#X obj 129 380 tgl 15 0 empty empty empty 17 7 0 10 -262144 -1 -1 0
1;
#X obj 129 422 tgl 15 0 empty empty empty 17 7 0 10 -262144 -1 -1 0
1;
#X obj 129 464 tgl 15 0 empty empty empty 17 7 0 10 -262144 -1 -1 0
1;
#X obj 129 506 tgl 15 0 empty empty empty 17 7 0 10 -262144 -1 -1 0
1;
#X obj 129 548 tgl 15 0 empty empty empty 17 7 0 10 -262144 -1 -1 0
1;
#X obj 130 588 tgl 15 0 empty empty empty 17 7 0 10 -262144 -1 -1 0
1;
#X obj 130 630 tgl 15 0 empty empty empty 17 7 0 10 -262144 -1 -1 0
1;
#X obj 130 672 tgl 15 0 empty empty empty 17 7 0 10 -262144 -1 -1 0
1;
#X obj 130 714 tgl 15 0 empty empty empty 17 7 0 10 -262144 -1 -1 0
1;
#X obj 130 756 tgl 15 0 empty empty empty 17 7 0 10 -262144 -1 -1 0
1;
#X obj 130 798 tgl 15 0 empty empty empty 17 7 0 10 -262144 -1 -1 0
1;
#X floatatom 130 840 5 0 0 0 - - -, f 5;
#X floatatom 130 882 5 0 0 0 - - -, f 5;
#X floatatom 130 924 5 0 0 0 - - -, f 5;
#X floatatom 130 966 5 0 0 0 - - -, f 5;
#X floatatom 337 343 5 0 0 0 - - -, f 5;
#X obj 376 481 osc~;
#X floatatom 421 255 5 0 0 0 - - -, f 5;
#X floatatom 457 255 5 0 0 0 - - -, f 5;
#X obj 316 185 r p1_ry;
#X obj 316 313 mtof;
#X obj 316 282 map, f 24;
#X obj 317 913 cospan4, f 12;
#X msg 351 253 -1;
#X msg 386 253 1;
#X obj 351 220 loadbang;
#X obj 633 324 cartasian2polar;
#X floatatom 633 355 5 0 0 0 - - -, f 5;
#X floatatom 720 355 5 0 0 0 - - -, f 5;
#X obj 633 92 vsl 15 128 -1 1 0 0 empty empty empty 0 -9 0 10 -262144
-1 -1 12700 1;
#X obj 723 209 hsl 128 15 -1 1 0 0 empty empty empty -2 -8 0 10 -262144
-1 -1 0 1;
#X floatatom 720 297 5 0 0 0 - - -, f 5;
#X floatatom 633 295 5 0 0 0 - - -, f 5;
#X obj 704 235 bng 15 250 50 0 empty empty empty 17 7 0 10 -262144
-1 -1;
#X obj 647 235 bng 15 250 50 0 empty empty empty 17 7 0 10 -262144
-1 -1;
#X obj 720 181 r p1_lx;
#X obj 633 64 r p1_ly;
#X obj 633 473 normalize, f 11;
#X obj 696 443 expr 8*atan(1);
#X msg 664 443 0;
#X obj 664 406 bng 15 250 50 0 empty empty empty 17 7 0 10 -262144
-1 -1;
#X obj 633 591 map, f 25;
#X msg 670 561 0;
#X msg 706 561 1;
#X msg 743 561 0;
#X msg 780 561 4;
#X obj 780 525 bng 15 250 50 0 empty empty empty 17 7 0 10 -262144
-1 -1;
#X obj 317 482 phasor~;
#X obj 317 514 *~ 2;
#X obj 317 546 -~ 1;
#X obj 494 395 vradio 20 1 0 4 empty empty empty 0 -8 0 15 -262144
-1 -1 0;
#X obj 317 573 demux, f 30;
#X obj 435 482 noise~;
#X floatatom 506 485 5 0 0 0 - - -, f 5;
#X text 468 438 osc;
#X text 451 418 phasor;
#X text 455 457 noise;
#X obj 5 6 cnv 15 1280 30 empty empty SoundSpaceInteraction_FinalProject
5 15 0 14 -153956 -262144 0;
#X floatatom 1137 215 0 0 0 0 - - -;
#X obj 1137 188 + 1;
#X obj 1080 189 float;
#X obj 1151 120 bng 15 250 50 0 empty empty empty 17 7 0 10 -262144
-1 -1;
#X msg 1181 160 -1;
#X obj 1080 119 bng 15 250 50 0 empty empty empty 17 7 0 10 -262144
-1 -1;
#X msg 1152 160 1;
#X obj 1080 91 inlet up;
#X obj 1151 92 inlet down;
#X obj 1137 240 > 4;
#X floatatom 1170 268 5 0 0 0 - - -, f 5;
#X obj 1137 290 spigot;
#X obj 1137 320 bng 15 250 50 0 empty empty empty 17 7 0 10 -262144
-1 -1;
#X text 26 81 Player 1;
#X text 129 80 Player 2;
#X obj 317 690 channel;
#X obj 657 1067 output;
#X obj 454 691 channel;
#X obj 454 914 cospan4, f 12;
#X obj 590 691 channel;
#X obj 590 914 cospan4, f 12;
#X obj 724 691 channel;
#X obj 724 914 cospan4, f 12;
#X obj 852 914 cospan4, f 12;
#X obj 852 691 channel;
#X obj 989 692 channel;
#X obj 989 915 cospan4, f 12;
#X obj 1125 692 channel;
#X obj 1125 915 cospan4, f 12;
#X obj 1259 692 channel;
#X obj 1259 915 cospan4, f 12;
#X obj 730 982 *~ 1;
#X obj 803 981 *~ 1;
#X obj 876 981 *~ 1;
#X obj 950 980 *~ 1;
#X connect 1 0 43 0;
#X connect 2 0 44 0;
#X connect 3 0 45 0;
#X connect 4 0 46 0;
#X connect 5 0 47 0;
#X connect 6 0 48 0;
#X connect 7 0 49 0;
#X connect 8 0 50 0;
#X connect 9 0 51 0;
#X connect 10 0 52 0;
#X connect 11 0 53 0;
#X connect 12 0 54 0;
#X connect 13 0 55 0;
#X connect 14 0 56 0;
#X connect 15 0 57 0;
#X connect 16 0 58 0;
#X connect 17 0 59 0;
#X connect 18 0 62 0;
#X connect 19 0 63 0;
#X connect 20 0 64 0;
#X connect 21 0 65 0;
#X connect 22 0 60 0;
#X connect 23 0 61 0;
#X connect 24 0 66 0;
#X connect 25 0 67 0;
#X connect 26 0 68 0;
#X connect 27 0 69 0;
#X connect 28 0 70 0;
#X connect 29 0 71 0;
#X connect 30 0 72 0;
#X connect 31 0 73 0;
#X connect 32 0 74 0;
#X connect 33 0 75 0;
#X connect 34 0 76 0;
#X connect 35 0 77 0;
#X connect 36 0 78 0;
#X connect 37 0 79 0;
#X connect 38 0 80 0;
#X connect 39 0 81 0;
#X connect 40 0 82 0;
#X connect 41 0 83 0;
#X connect 42 0 84 0;
#X connect 86 0 121 1;
#X connect 87 0 91 3;
#X connect 88 0 91 4;
#X connect 89 0 91 0;
#X connect 90 0 85 0;
#X connect 90 0 86 0;
#X connect 90 0 117 0;
#X connect 91 0 90 0;
#X connect 92 0 159 0;
#X connect 92 1 160 0;
#X connect 92 2 161 0;
#X connect 92 3 162 0;
#X connect 93 0 91 1;
#X connect 94 0 91 2;
#X connect 95 0 93 0;
#X connect 95 0 94 0;
#X connect 96 0 97 0;
#X connect 96 1 98 0;
#X connect 97 0 107 0;
#X connect 99 0 102 0;
#X connect 99 0 104 0;
#X connect 100 0 101 0;
#X connect 100 0 103 0;
#X connect 101 0 96 1;
#X connect 102 0 96 0;
#X connect 103 0 102 0;
#X connect 104 0 101 0;
#X connect 105 0 100 0;
#X connect 106 0 99 0;
#X connect 107 0 111 0;
#X connect 108 0 107 2;
#X connect 109 0 107 1;
#X connect 110 0 109 0;
#X connect 110 0 108 0;
#X connect 112 0 111 1;
#X connect 113 0 111 2;
#X connect 114 0 111 3;
#X connect 115 0 111 4;
#X connect 116 0 115 0;
#X connect 116 0 114 0;
#X connect 116 0 113 0;
#X connect 116 0 112 0;
#X connect 117 0 118 0;
#X connect 118 0 119 0;
#X connect 119 0 121 0;
#X connect 120 0 121 3;
#X connect 120 0 123 0;
#X connect 122 0 121 2;
#X connect 128 0 137 0;
#X connect 129 0 128 0;
#X connect 129 0 130 1;
#X connect 130 0 129 0;
#X connect 131 0 132 0;
#X connect 131 0 130 0;
#X connect 132 0 129 1;
#X connect 133 0 134 0;
#X connect 133 0 130 0;
#X connect 134 0 129 1;
#X connect 135 0 133 0;
#X connect 136 0 131 0;
#X connect 137 0 138 0;
#X connect 137 0 139 0;
#X connect 138 0 139 1;
#X connect 139 0 140 0;
#X connect 143 0 92 0;
#X connect 145 0 146 0;
#X connect 146 0 159 0;
#X connect 146 1 160 0;
#X connect 146 2 161 0;
#X connect 146 3 162 0;
#X connect 147 0 148 0;
#X connect 148 0 159 0;
#X connect 148 1 160 0;
#X connect 148 2 161 0;
#X connect 148 3 162 0;
#X connect 149 0 150 0;
#X connect 150 0 159 0;
#X connect 150 1 160 0;
#X connect 150 2 161 0;
#X connect 150 3 162 0;
#X connect 151 0 159 0;
#X connect 151 1 160 0;
#X connect 151 2 161 0;
#X connect 151 3 162 0;
#X connect 152 0 151 0;
#X connect 153 0 154 0;
#X connect 154 0 159 0;
#X connect 154 1 160 0;
#X connect 154 2 161 0;
#X connect 154 3 162 0;
#X connect 155 0 156 0;
#X connect 156 0 159 0;
#X connect 156 1 160 0;
#X connect 156 2 161 0;
#X connect 156 3 162 0;
#X connect 157 0 158 0;
#X connect 158 0 159 0;
#X connect 158 1 160 0;
#X connect 158 2 161 0;
#X connect 158 3 162 0;
#X connect 159 0 144 1;
#X connect 160 0 144 2;
#X connect 161 0 144 3;
#X connect 162 0 144 4;
