#N canvas 207 67 450 454 10;
#X obj 60 74 inlet x;
#X obj 117 74 inlet y;
#X obj 17 354 outlet phi;
#X obj 207 265 *;
#X obj 150 329 sqrt;
#X obj 150 296 +, f 10;
#X obj 150 265 *;
#X obj 19 124 atan2;
#X obj 32 271 expr 4*atan(1);
#X floatatom 32 297 5 0 0 0 - - -, f 5;
#X obj 17 329 +;
#X obj 32 239 bng 15 250 50 0 empty empty empty 17 7 0 10 -262144 -1
-1;
#X obj 150 355 outlet r;
#X connect 0 0 6 0;
#X connect 0 0 6 1;
#X connect 0 0 7 0;
#X connect 1 0 3 0;
#X connect 1 0 3 1;
#X connect 1 0 7 1;
#X connect 3 0 5 1;
#X connect 4 0 12 0;
#X connect 5 0 4 0;
#X connect 6 0 5 0;
#X connect 7 0 10 0;
#X connect 7 0 11 0;
#X connect 8 0 9 0;
#X connect 9 0 10 1;
#X connect 10 0 2 0;
#X connect 11 0 8 0;
