#N canvas 998 141 642 380 10;
#X obj 32 28 inlet~ signal;
#X obj 153 28 inlet control;
#X obj 32 275 outlet~ left;
#X obj 138 274 outlet~ right;
#X obj 32 248 *~;
#X obj 138 248 *~;
#X obj 47 215 cos~;
#X obj 153 76 lop~ 1;
#X obj 153 52 sig~;
#X obj 153 124 -~ 0.25;
#X obj 47 188 -~ 0.25;
#X obj 153 153 cos~;
#X obj 153 100 *~ 0.25;
#X connect 0 0 4 0;
#X connect 0 0 5 0;
#X connect 1 0 8 0;
#X connect 4 0 2 0;
#X connect 5 0 3 0;
#X connect 6 0 4 1;
#X connect 7 0 12 0;
#X connect 8 0 7 0;
#X connect 9 0 10 0;
#X connect 9 0 11 0;
#X connect 10 0 6 0;
#X connect 11 0 5 1;
#X connect 12 0 9 0;
