#N canvas 49 29 590 590 10;
#X obj 77 4 inlet control;
#X obj 177 29 sig~;
#X obj 177 53 lop~ 1;
#X obj 67 329 *~, f 19;
#X obj 67 354 outlet~ channel1;
#X obj 177 195 clip~ 0 1;
#X obj 177 173 cos~;
#X obj 227 329 *~;
#X obj 332 330 *~;
#X obj 437 333 *~;
#X obj 177 79 *~ 0.25;
#X obj 241 194 clip~ 0 1;
#X obj 451 194 clip~ 0 1;
#X obj 346 194 clip~ 0 1;
#X obj 227 354 outlet~ channel2;
#X obj 332 354 outlet~ channel3;
#X obj 437 354 outlet~ channel4;
#X obj 346 173 cos~;
#X obj 451 173 cos~;
#X obj 241 173 cos~;
#X obj 241 150 -~ 0.25;
#X obj 347 146 -~ 0.5;
#X obj 451 146 -~ 0.75;
#X obj 67 269 inlet~ signal;
#X obj 38 46 hsl 64 8 0 4 0 0 empty empty empty -2 -8 0 10 -204800
-1 -1 0 1;
#X floatatom 110 43 5 0 0 0 - - -, f 5;
#X connect 0 0 24 0;
#X connect 1 0 2 0;
#X connect 2 0 10 0;
#X connect 3 0 4 0;
#X connect 5 0 3 1;
#X connect 6 0 5 0;
#X connect 7 0 14 0;
#X connect 8 0 15 0;
#X connect 9 0 16 0;
#X connect 10 0 22 0;
#X connect 10 0 21 0;
#X connect 10 0 20 0;
#X connect 10 0 6 0;
#X connect 11 0 7 1;
#X connect 12 0 9 1;
#X connect 13 0 8 1;
#X connect 17 0 13 0;
#X connect 18 0 12 0;
#X connect 19 0 11 0;
#X connect 20 0 19 0;
#X connect 21 0 17 0;
#X connect 22 0 18 0;
#X connect 23 0 3 0;
#X connect 23 0 7 0;
#X connect 23 0 8 0;
#X connect 23 0 9 0;
#X connect 24 0 25 0;
#X connect 25 0 1 0;
#X coords 0 0 1 1 117 32 1 30 30;
