#N canvas 940 59 458 590 10;
#X obj 38 41 inlet~ s1;
#X obj 105 41 inlet~ s2;
#X obj 175 41 inlet~ s3;
#X obj 248 41 inlet routing;
#X obj 248 139 sel 0 1 2 3, f 29;
#X msg 248 165 0 0 0;
#X msg 290 165 1 0 0;
#X msg 376 166 0 0 1;
#X obj 248 231 unpack f f f;
#X obj 248 258 sig~;
#X obj 317 258 sig~;
#X obj 282 258 sig~;
#X msg 333 166 0 1 0;
#X obj 190 349 lop~ 80;
#X obj 175 386 *~;
#X obj 120 349 lop~ 80;
#X obj 105 386 *~;
#X obj 53 349 lop~ 80;
#X obj 38 386 *~;
#X obj 105 424 outlet~;
#X connect 0 0 18 0;
#X connect 1 0 16 0;
#X connect 2 0 14 0;
#X connect 3 0 4 0;
#X connect 4 0 5 0;
#X connect 4 1 6 0;
#X connect 4 2 12 0;
#X connect 4 3 7 0;
#X connect 5 0 8 0;
#X connect 6 0 8 0;
#X connect 7 0 8 0;
#X connect 8 0 9 0;
#X connect 8 1 11 0;
#X connect 8 2 10 0;
#X connect 9 0 17 0;
#X connect 10 0 13 0;
#X connect 11 0 15 0;
#X connect 12 0 8 0;
#X connect 13 0 14 1;
#X connect 14 0 19 0;
#X connect 15 0 16 1;
#X connect 16 0 19 0;
#X connect 17 0 18 1;
#X connect 18 0 19 0;
