#N canvas 1115 247 696 447 10;
#X obj 215 53 inlet;
#X obj 215 75 t b b b b;
#X obj 110 193 inlet~;
#X obj 230 301 writesf~ 1;
#X obj 190 193 del \$1;
#X msg 210 224 stop;
#X msg 249 224 start;
#X obj 297 151 f 0;
#X obj 334 151 + 1;
#X obj 410 245 outlet number written;
#X obj 189 344 outlet done;
#X msg 297 211 stop \, open \$1;
#X obj 297 184 makefilename \$2/soundfile%d.aif;
#X obj 423 338 print;
#X obj 108 136 bng 15 250 50 0 empty empty start 17 7 0 10 -262144
-1 -1;
#X connect 0 0 1 0;
#X connect 1 1 4 0;
#X connect 1 2 6 0;
#X connect 1 3 7 0;
#X connect 2 0 3 0;
#X connect 4 0 5 0;
#X connect 4 0 10 0;
#X connect 5 0 3 0;
#X connect 6 0 3 0;
#X connect 7 0 8 0;
#X connect 7 0 9 0;
#X connect 7 0 12 0;
#X connect 8 0 7 1;
#X connect 11 0 3 0;
#X connect 12 0 11 0;
#X connect 12 0 13 0;
#X connect 14 0 1 0;
#X coords 0 -1 1 1 85 60 1 100 100;
