#N canvas 921 197 1011 675 10;
#X msg 49 45 bang;
#X obj 49 67 openpanel;
#X obj 49 89 print;
#X msg 154 145 symbol L;
#X msg 154 205 set \$1;
#X obj 154 237 makefilename not-set-yet;
#X obj 154 173 makefilename %%s%s.aif;
#X obj 127 52 t b b;
#X obj 127 24 bng 15 250 50 0 empty empty empty 17 7 0 10 -262144 -1
-1;
#X msg 347 155 symbol R;
#X msg 710 160 symbol Rs;
#X msg 529 159 symbol Ls;
#X msg 347 212 set \$1;
#X obj 347 244 makefilename not-set-yet;
#X obj 347 180 makefilename %%s%s.aif;
#X msg 529 215 set \$1;
#X obj 529 247 makefilename not-set-yet;
#X obj 529 183 makefilename %%s%s.aif;
#X msg 710 217 set \$1;
#X obj 710 249 makefilename not-set-yet;
#X obj 710 185 makefilename %%s%s.aif;
#X msg 127 84 symbol radium.;
#X obj 344 305 print;
#X obj 526 308 print;
#X obj 707 310 print;
#X msg 204 345 set open \$1;
#X obj 121 467 soundfiler;
#X obj 385 541 symbol \$0-b;
#X obj 323 422 symbol \$0-a;
#X obj 232 473 pack s s;
#X msg 224 514 read -resize \$1 \$2;
#X obj 199 577 print;
#X connect 0 0 1 0;
#X connect 1 0 2 0;
#X connect 3 0 6 0;
#X connect 4 0 5 0;
#X connect 5 0 25 0;
#X connect 6 0 4 0;
#X connect 7 0 21 0;
#X connect 7 1 3 0;
#X connect 7 1 9 0;
#X connect 7 1 11 0;
#X connect 7 1 10 0;
#X connect 8 0 7 0;
#X connect 9 0 14 0;
#X connect 10 0 20 0;
#X connect 11 0 17 0;
#X connect 12 0 13 0;
#X connect 14 0 12 0;
#X connect 15 0 16 0;
#X connect 17 0 15 0;
#X connect 18 0 19 0;
#X connect 20 0 18 0;
#X connect 21 0 5 0;
#X connect 21 0 13 0;
#X connect 21 0 16 0;
#X connect 21 0 19 0;
#X connect 25 0 28 0;
#X connect 28 0 29 1;
#X connect 29 0 30 0;
#X connect 30 0 31 0;
