#N canvas 587 607 1115 561 10;
#X obj 89 35 loopplayer;
#X obj 321 265 dac~ 1 2;
#X obj 292 222 bng 15 250 50 0 empty empty empty 17 7 0 10 -262144
-1 -1;
#X obj 321 38 monosampler, f 27;
#X obj 601 38 catch~ audio;
#X obj 601 153 bng 15 250 50 0 empty empty done 17 7 0 10 -262144 -1
-1;
#X floatatom 730 154 5 0 0 0 - - -, f 5;
#X obj 730 38 bng 15 250 50 0 empty empty start 17 7 0 10 -262144 -1
-1;
#X obj 89 221 throw~ audio;
#X obj 601 70 filewriter 1000 output;
#X obj 132 319 dac~ 1 2;
#X connect 0 0 8 0;
#X connect 0 0 10 0;
#X connect 0 0 10 1;
#X connect 0 1 2 0;
#X connect 3 0 1 0;
#X connect 3 0 1 1;
#X connect 4 0 9 0;
#X connect 7 0 9 1;
#X connect 9 0 5 0;
#X connect 9 1 6 0;
