#N canvas 777 108 450 300 10;
#X obj 18 31 inlet value;
#X obj 99 31 inlet min1;
#X obj 174 31 inlet max1;
#X obj 248 31 inlet min2;
#X obj 320 31 inlet max2;
#X obj 150 247 outlet value;
#X obj 150 195 lerp;
#X obj 74 94 normalize;
#X connect 0 0 7 0;
#X connect 1 0 7 1;
#X connect 2 0 7 2;
#X connect 3 0 6 1;
#X connect 4 0 6 2;
#X connect 6 0 5 0;
#X connect 7 0 6 0;
