#N canvas 887 269 900 646 10;
#X obj 60 240 dac~ 1 2 2 1, f 15;
#X obj 81 51 bng 15 250 50 0 empty empty empty 17 7 0 10 -262144 -1
-1;
#X obj 60 159 bng 15 250 50 0 empty empty empty 17 7 0 10 -262144 -1
-1;
#X obj 60 181 multisampleTest;
#X obj 459 283 multisampleLooper;
#X obj 484 139 bng 15 250 50 0 empty empty empty 17 7 0 10 -262144
-1 -1;
#X obj 517 367 dac~ 1 2 2 1, f 15;
#X msg 558 181 lib/loops/submarine/submarine.Ls.aif;
#X msg 533 205 lib/loops/submarine/submarine.Rs.aif;
#X msg 508 228 lib/loops/submarine/submarine.R.aif;
#X msg 483 252 lib/loops/submarine/submarine.L.aif;
#X obj 459 254 tgl 15 0 empty empty empty 17 7 0 10 -262144 -1 -1 0
1;
#X obj 54 440 multisampleOneShot;
#X obj 81 298 bng 15 250 50 0 empty empty empty 17 7 0 10 -262144 -1
-1;
#X obj 54 406 bng 15 250 50 0 empty empty empty 17 7 0 10 -262144 -1
-1;
#X msg 147 334 lib/oneshot/combophone/combophone.Ls.aif;
#X msg 125 358 lib/oneshot/combophone/combophone.Rs.aif;
#X msg 103 381 lib/oneshot/combophone/combophone.R.aif;
#X msg 81 405 lib/oneshot/combophone/combophone.L.aif;
#X obj 517 367 dac~ 1 2 2 1, f 15;
#X obj 66 501 dac~ 1 2 2 1, f 15;
#X obj 66 501 dac~ 1 2 2 1, f 15;
#X msg 147 87 lib/loops/magneticflux/magneticflux.Ls.aif;
#X msg 125 111 lib/loops/magneticflux/magneticflux.Rs.aif;
#X msg 103 134 lib/loops/magneticflux/magneticflux.R.aif;
#X msg 81 158 lib/loops/magneticflux/magneticflux.L.aif;
#X connect 1 0 25 0;
#X connect 1 0 24 0;
#X connect 1 0 23 0;
#X connect 1 0 22 0;
#X connect 2 0 3 0;
#X connect 3 0 0 0;
#X connect 3 1 0 1;
#X connect 3 2 0 2;
#X connect 3 3 0 3;
#X connect 4 0 6 0;
#X connect 4 1 6 1;
#X connect 4 2 6 2;
#X connect 4 3 6 3;
#X connect 5 0 7 0;
#X connect 5 0 8 0;
#X connect 5 0 9 0;
#X connect 5 0 10 0;
#X connect 7 0 4 4;
#X connect 8 0 4 3;
#X connect 9 0 4 2;
#X connect 10 0 4 1;
#X connect 11 0 4 0;
#X connect 12 0 20 0;
#X connect 12 1 20 1;
#X connect 12 2 20 2;
#X connect 12 3 20 3;
#X connect 13 0 18 0;
#X connect 13 0 17 0;
#X connect 13 0 16 0;
#X connect 13 0 15 0;
#X connect 14 0 12 0;
#X connect 15 0 12 4;
#X connect 16 0 12 3;
#X connect 17 0 12 2;
#X connect 18 0 12 1;
#X connect 22 0 3 4;
#X connect 23 0 3 3;
#X connect 24 0 3 2;
#X connect 25 0 3 1;
