#N canvas 627 246 1109 687 10;
#X obj 32 48 bng 15 250 50 0 empty empty Play 17 7 0 10 -262144 -1
-1;
#X obj 32 150 outlet~ c1;
#X obj 32 5 inlet;
#X obj 32 127 tabplay~ \$0-c1;
#X obj 32 105 bng 15 250 50 0 empty empty empty 17 7 0 10 -262144 -1
-1;
#X obj 172 219 t a b;
#X obj 172 291 pack s s;
#X msg 172 313 read -resize \$1 \$2;
#X obj 172 343 soundfiler;
#X obj 172 191 inlet;
#X obj 34 220 t a b;
#X obj 34 292 pack s s;
#X msg 34 314 read -resize \$1 \$2;
#X obj 34 344 soundfiler;
#X obj 34 192 inlet;
#X obj 61 258 symbol \$0-c1;
#X obj 449 220 t a b;
#X obj 449 292 pack s s;
#X msg 449 314 read -resize \$1 \$2;
#X obj 449 344 soundfiler;
#X obj 449 192 inlet;
#X obj 311 221 t a b;
#X obj 311 293 pack s s;
#X msg 311 315 read -resize \$1 \$2;
#X obj 311 345 soundfiler;
#X obj 311 193 inlet;
#X obj 199 257 symbol \$0-c2;
#X obj 338 259 symbol \$0-c3;
#X obj 476 258 symbol \$0-c4;
#X obj 133 105 bng 15 250 50 0 empty empty empty 17 7 0 10 -262144
-1 -1;
#X obj 35 387 table \$0-c1;
#X obj 175 386 table \$0-c2;
#X obj 305 390 table \$0-c3;
#X obj 445 389 table \$0-c4;
#X obj 133 150 outlet~ c2;
#X obj 133 127 tabplay~ \$0-c2;
#X obj 234 105 bng 15 250 50 0 empty empty empty 17 7 0 10 -262144
-1 -1;
#X obj 234 150 outlet~ c2;
#X obj 333 105 bng 15 250 50 0 empty empty empty 17 7 0 10 -262144
-1 -1;
#X obj 333 150 outlet~ c2;
#X obj 234 127 tabplay~ \$0-c3;
#X obj 333 127 tabplay~ \$0-c4;
#X connect 0 0 4 0;
#X connect 0 0 29 0;
#X connect 0 0 36 0;
#X connect 0 0 38 0;
#X connect 2 0 0 0;
#X connect 3 0 1 0;
#X connect 4 0 3 0;
#X connect 5 0 6 0;
#X connect 5 1 26 0;
#X connect 6 0 7 0;
#X connect 7 0 8 0;
#X connect 9 0 5 0;
#X connect 10 0 11 0;
#X connect 10 1 15 0;
#X connect 11 0 12 0;
#X connect 12 0 13 0;
#X connect 14 0 10 0;
#X connect 15 0 11 1;
#X connect 16 0 17 0;
#X connect 16 1 28 0;
#X connect 17 0 18 0;
#X connect 18 0 19 0;
#X connect 20 0 16 0;
#X connect 21 0 22 0;
#X connect 21 1 27 0;
#X connect 22 0 23 0;
#X connect 23 0 24 0;
#X connect 25 0 21 0;
#X connect 26 0 6 1;
#X connect 27 0 22 1;
#X connect 28 0 17 1;
#X connect 29 0 35 0;
#X connect 35 0 34 0;
#X connect 36 0 40 0;
#X connect 38 0 41 0;
#X connect 40 0 37 0;
#X connect 41 0 39 0;
#X coords 0 -1 1 1 60 40 1 30 30;
