#N canvas 0 22 1442 739 10;
#X obj 817 162 / 4;
#X floatatom 817 117 5 0 0 0 Period - -, f 5;
#X floatatom 817 184 5 0 0 0 Unit - -, f 5;
#X obj 496 85 * 2;
#X obj 643 83 * 3;
#X obj 341 85 * 1;
#X floatatom 341 217 5 0 0 0 - - -, f 5;
#X floatatom 496 217 5 0 0 0 - - -, f 5;
#X floatatom 643 217 5 0 0 0 - - -, f 5;
#X obj 326 236 +;
#X obj 481 236 +;
#X obj 628 237 +;
#X obj 237 273 r \$0-period;
#X obj 845 149 s \$0-period;
#X obj 817 213 s \$0-unit;
#X obj 222 296 mod;
#X floatatom 222 318 5 0 0 0 - - -, f 5;
#X obj 222 361 /;
#X obj 237 336 r \$0-unit;
#X floatatom 222 383 5 0 0 0 - - -, f 5;
#X floatatom 222 217 5 0 0 0 - - -, f 5;
#X obj 222 122 inlet pos;
#X obj 341 57 r \$0-unit;
#X obj 496 56 r \$0-unit;
#X obj 643 56 r \$0-unit;
#X obj 341 276 r \$0-period;
#X obj 326 299 mod;
#X floatatom 326 321 5 0 0 0 - - -, f 5;
#X obj 326 364 /;
#X obj 341 339 r \$0-unit;
#X floatatom 326 386 5 0 0 0 - - -, f 5;
#X obj 496 278 r \$0-period;
#X obj 481 301 mod;
#X floatatom 481 323 5 0 0 0 - - -, f 5;
#X obj 481 366 /;
#X obj 496 341 r \$0-unit;
#X floatatom 481 388 5 0 0 0 - - -, f 5;
#X obj 643 276 r \$0-period;
#X obj 628 299 mod;
#X floatatom 628 321 5 0 0 0 - - -, f 5;
#X obj 628 364 /;
#X obj 643 339 r \$0-unit;
#X floatatom 628 386 5 0 0 0 - - -, f 5;
#X obj 817 79 inlet period;
#X obj 222 402 outlet p1;
#X obj 326 405 outlet p2;
#X obj 481 407 outlet p3;
#X obj 628 405 outlet p4;
#X obj 311 529 hsl 64 8 0 4 0 0 empty empty empty -2 -8 0 10 -170601
-1 -1 0 1;
#X obj 311 542 hsl 64 8 0 4 0 0 empty empty empty -2 -8 0 10 -170601
-1 -1 0 1;
#X obj 311 554 hsl 64 8 0 4 0 0 empty empty empty -2 -8 0 10 -170601
-1 -1 0 1;
#X obj 311 567 hsl 64 8 0 4 0 0 empty empty empty -2 -8 0 10 -170601
-1 -1 0 1;
#X connect 0 0 2 0;
#X connect 1 0 0 0;
#X connect 1 0 13 0;
#X connect 2 0 14 0;
#X connect 3 0 7 0;
#X connect 4 0 8 0;
#X connect 5 0 6 0;
#X connect 6 0 9 1;
#X connect 7 0 10 1;
#X connect 8 0 11 1;
#X connect 9 0 26 0;
#X connect 10 0 32 0;
#X connect 11 0 38 0;
#X connect 12 0 15 1;
#X connect 15 0 16 0;
#X connect 16 0 17 0;
#X connect 17 0 19 0;
#X connect 18 0 17 1;
#X connect 19 0 44 0;
#X connect 19 0 48 0;
#X connect 20 0 15 0;
#X connect 21 0 20 0;
#X connect 21 0 9 0;
#X connect 21 0 10 0;
#X connect 21 0 11 0;
#X connect 22 0 5 0;
#X connect 23 0 3 0;
#X connect 24 0 4 0;
#X connect 25 0 26 1;
#X connect 26 0 27 0;
#X connect 27 0 28 0;
#X connect 28 0 30 0;
#X connect 29 0 28 1;
#X connect 30 0 45 0;
#X connect 30 0 49 0;
#X connect 31 0 32 1;
#X connect 32 0 33 0;
#X connect 33 0 34 0;
#X connect 34 0 36 0;
#X connect 35 0 34 1;
#X connect 36 0 46 0;
#X connect 36 0 50 0;
#X connect 37 0 38 1;
#X connect 38 0 39 0;
#X connect 39 0 40 0;
#X connect 40 0 42 0;
#X connect 41 0 40 1;
#X connect 42 0 47 0;
#X connect 42 0 51 0;
#X connect 43 0 1 0;
#X coords 0 -1 1 1 85 80 1 300 500;
