#N canvas 385 573 1109 687 10;
#X obj 32 190 outlet~ c1;
#X obj 32 5 inlet;
#X obj 32 127 tabplay~ \$0-c1;
#X obj 172 279 t a b;
#X obj 172 351 pack s s;
#X msg 172 373 read -resize \$1 \$2;
#X obj 172 403 soundfiler;
#X obj 172 251 inlet;
#X obj 34 280 t a b;
#X obj 34 352 pack s s;
#X msg 34 374 read -resize \$1 \$2;
#X obj 34 404 soundfiler;
#X obj 34 252 inlet;
#X obj 61 318 symbol \$0-c1;
#X obj 449 280 t a b;
#X obj 449 352 pack s s;
#X msg 449 374 read -resize \$1 \$2;
#X obj 449 404 soundfiler;
#X obj 449 252 inlet;
#X obj 311 281 t a b;
#X obj 311 353 pack s s;
#X msg 311 375 read -resize \$1 \$2;
#X obj 311 405 soundfiler;
#X obj 311 253 inlet;
#X obj 199 317 symbol \$0-c2;
#X obj 338 319 symbol \$0-c3;
#X obj 476 318 symbol \$0-c4;
#X obj 35 447 table \$0-c1;
#X obj 175 446 table \$0-c2;
#X obj 305 450 table \$0-c3;
#X obj 445 449 table \$0-c4;
#X obj 203 190 outlet~ c2;
#X obj 203 127 tabplay~ \$0-c2;
#X obj 344 127 tabplay~ \$0-c3;
#X obj 503 127 tabplay~ \$0-c4;
#X obj 32 76 sel 1;
#X obj 32 51 tgl 15 0 empty empty Play 17 7 0 10 -262144 -1 -1 0 1
;
#X obj 113 179 spigot 1;
#X obj 113 151 t b;
#X obj 284 156 t b;
#X obj 425 155 t b;
#X obj 584 155 t b;
#X obj 285 189 spigot 1;
#X obj 425 177 spigot 1;
#X obj 584 187 spigot 1;
#X obj 344 190 outlet~ c3;
#X obj 503 190 outlet~ c4;
#X msg 32 102 bang;
#X msg 344 101 bang;
#X msg 504 97 bang;
#X msg 203 99 bang;
#X connect 1 0 36 0;
#X connect 2 0 0 0;
#X connect 2 1 38 0;
#X connect 3 0 4 0;
#X connect 3 1 24 0;
#X connect 4 0 5 0;
#X connect 5 0 6 0;
#X connect 7 0 3 0;
#X connect 8 0 9 0;
#X connect 8 1 13 0;
#X connect 9 0 10 0;
#X connect 10 0 11 0;
#X connect 12 0 8 0;
#X connect 13 0 9 1;
#X connect 14 0 15 0;
#X connect 14 1 26 0;
#X connect 15 0 16 0;
#X connect 16 0 17 0;
#X connect 18 0 14 0;
#X connect 19 0 20 0;
#X connect 19 1 25 0;
#X connect 20 0 21 0;
#X connect 21 0 22 0;
#X connect 23 0 19 0;
#X connect 24 0 4 1;
#X connect 25 0 20 1;
#X connect 26 0 15 1;
#X connect 32 0 31 0;
#X connect 32 1 39 0;
#X connect 33 0 45 0;
#X connect 33 1 40 0;
#X connect 34 0 46 0;
#X connect 34 1 41 0;
#X connect 35 0 37 1;
#X connect 35 0 42 1;
#X connect 35 0 43 1;
#X connect 35 0 44 1;
#X connect 35 0 47 0;
#X connect 36 0 35 0;
#X connect 36 0 50 0;
#X connect 36 0 48 0;
#X connect 36 0 49 0;
#X connect 37 0 2 0;
#X connect 38 0 37 0;
#X connect 39 0 42 0;
#X connect 40 0 43 0;
#X connect 41 0 44 0;
#X connect 42 0 32 0;
#X connect 43 0 33 0;
#X connect 44 0 34 0;
#X connect 47 0 2 0;
#X connect 48 0 33 0;
#X connect 49 0 34 0;
#X connect 50 0 32 0;
#X coords 0 -1 1 1 60 40 1 30 30;
