#N canvas 525 377 251 189 10;
#X obj 22 25 inlet value;
#X obj 100 25 inlet min;
#X obj 168 25 inlet max;
#X obj 39 143 outlet value;
#X obj 131 76 -;
#X obj 39 79 -;
#X obj 39 117 /;
#X connect 0 0 5 0;
#X connect 1 0 5 1;
#X connect 1 0 4 1;
#X connect 2 0 4 0;
#X connect 4 0 6 1;
#X connect 5 0 6 0;
#X connect 6 0 3 0;
