#N canvas 571 485 677 527 10;
#X obj 319 100 inlet;
#X obj 319 122 openpanel;
#X obj 319 144 t a b;
#X obj 319 216 pack s s;
#X obj 319 260 soundfiler;
#X msg 319 292 bang;
#X obj 319 314 tabplay~ \$0-a;
#X obj 319 336 outlet~;
#X obj 402 26 inlet;
#X msg 319 238 read -resize \$1 \$2;
#X obj 346 182 symbol \$0-a;
#X obj 394 411 outlet end;
#X obj 319 64 bng 15 250 50 0 empty empty Open_File 17 7 0 10 -262144
-1 -1;
#X obj 402 64 bng 15 250 50 0 empty empty Play 17 7 0 10 -262144 -1
-1;
#X obj 480 207 table \$0-a;
#X connect 0 0 1 0;
#X connect 1 0 2 0;
#X connect 2 0 3 0;
#X connect 2 1 10 0;
#X connect 3 0 9 0;
#X connect 5 0 6 0;
#X connect 6 0 7 0;
#X connect 6 1 11 0;
#X connect 8 0 13 0;
#X connect 9 0 4 0;
#X connect 10 0 3 1;
#X connect 12 0 1 0;
#X connect 13 0 5 0;
#X coords 0 -1 1 1 210 30 1 240 60;
