#N canvas 546 603 677 527 10;
#X obj 11 26 inlet;
#X obj 11 48 openpanel;
#X obj 11 70 t a b;
#X obj 11 142 pack s s;
#X obj 11 186 soundfiler;
#X msg 11 208 bang;
#X obj 11 230 tabplay~ \$0-a;
#X obj 11 252 outlet~;
#X obj 402 26 inlet;
#X msg 11 164 read -resize \$1 \$2;
#X obj 38 108 symbol \$0-a;
#X obj 86 337 outlet end;
#N canvas 0 22 450 278 (subpatch) 0;
#X array \$0-a 2016 float 2;
#X coords 0 1 2016 -1 200 140 1;
#X restore 244 96 graph;
#X obj 319 64 bng 15 250 50 0 empty empty Open_File 17 7 0 10 -262144
-1 -1;
#X obj 402 64 bng 15 250 50 0 empty empty Play 17 7 0 10 -262144 -1
-1;
#X connect 0 0 1 0;
#X connect 1 0 2 0;
#X connect 2 0 3 0;
#X connect 2 1 10 0;
#X connect 3 0 9 0;
#X connect 4 0 5 0;
#X connect 5 0 6 0;
#X connect 6 0 7 0;
#X connect 6 1 11 0;
#X connect 8 0 14 0;
#X connect 9 0 4 0;
#X connect 10 0 3 1;
#X connect 13 0 1 0;
#X connect 14 0 5 0;
#X coords 0 -1 1 1 210 180 1 240 60;
