#N canvas 549 125 660 404 10;
#X obj 4 69 inlet masterMute;
#X obj 4 6 cnv 15 640 30 empty empty Output 5 15 0 14 -153956 -262144
0;
#X obj 345 131 channel;
#X obj 276 131 channel;
#X obj 206 131 channel;
#X obj 137 131 channel;
#X obj 206 70 inlet~ c2;
#X obj 137 70 inlet~ c1;
#X obj 345 70 inlet~ c4;
#X obj 276 70 inlet~ c3;
#X obj 137 109 tgl 15 0 empty empty Mute_All 17 7 0 10 -258113 -262144
-1 0 1;
#X obj 137 375 dac~ 1 2 2 1, f 35;
#X connect 0 0 10 0;
#X connect 2 0 11 3;
#X connect 3 0 11 2;
#X connect 4 0 11 1;
#X connect 5 0 11 0;
#X connect 6 0 4 0;
#X connect 7 0 5 0;
#X connect 8 0 2 0;
#X connect 9 0 3 0;
#X connect 10 0 5 2;
#X connect 10 0 4 2;
#X connect 10 0 3 2;
#X connect 10 0 2 2;
#X coords 0 -1 1 1 300 270 1 120 90;
