#N canvas 646 623 450 300 10;
#X obj 202 123 hsl 128 15 -1 1 0 0 empty empty empty -2 -8 0 10 -262144
-1 -1 0 1;
#X floatatom 199 143 5 0 0 0 - - -, f 5;
#X floatatom 184 203 0 0 0 0 - - -;
#X obj 184 176 + 1;
#X obj 122 177 float;
#X obj 122 110 tgl 15 0 empty empty empty 17 7 0 10 -262144 -1 -1 0
1;
#X obj 122 130 metro 5;
#X obj 119 49 inlet toggle;
#X obj 232 76 inlet stickPos;
#X obj 184 225 outlet stickCounter;
#X connect 0 0 1 0;
#X connect 1 0 3 1;
#X connect 2 0 9 0;
#X connect 3 0 2 0;
#X connect 3 0 4 1;
#X connect 4 0 3 0;
#X connect 5 0 6 0;
#X connect 6 0 4 0;
#X connect 7 0 5 0;
#X connect 8 0 0 0;
