#N canvas 269 256 1230 861 10;
#X obj 412 109 tgl 15 0 empty empty Run 17 7 0 10 -262144 -1 -1 0 1
;
#X floatatom 631 162 5 0 0 0 - - -, f 5;
#X floatatom 641 206 5 0 0 0 - - -, f 5;
#X obj 631 297 bng 15 250 50 0 empty empty empty 17 7 0 10 -262144
-1 -1;
#X obj 412 129 timebase 120 4 0, f 37;
#X obj 428 330 oneshotplayer;
#X obj 664 595 dac~ 1 2;
#X floatatom 485 108 5 0 0 0 BPM - -, f 5;
#X floatatom 631 104 5 0 0 0 Swing - -, f 5;
#X obj 125 118 loopplayer;
#X obj 125 333 dac~ 1 2;
#X obj 884 327 oneshotplayer;
#X obj 647 330 oneshotplayer;
#X obj 631 181 mod 16;
#X obj 631 231 select 0 1 2 3 4 5 6 7 8 9 10 11 12 13 14 15;
#X obj 194 334 oneshotplayer;
#X obj 673 548 *~ 0.25;
#X obj 324 606 monosampler;
#X obj 926 706 filewriter 2000 output;
#X connect 0 0 4 0;
#X connect 1 0 13 0;
#X connect 3 0 5 1;
#X connect 4 1 1 0;
#X connect 5 0 16 0;
#X connect 7 0 4 1;
#X connect 8 0 4 3;
#X connect 9 0 10 0;
#X connect 9 0 10 1;
#X connect 11 0 16 0;
#X connect 12 0 16 0;
#X connect 13 0 2 0;
#X connect 13 0 14 0;
#X connect 14 0 3 0;
#X connect 14 0 15 1;
#X connect 14 2 12 1;
#X connect 14 2 15 1;
#X connect 14 4 3 0;
#X connect 14 4 11 1;
#X connect 14 6 12 1;
#X connect 14 8 3 0;
#X connect 14 10 12 1;
#X connect 14 12 3 0;
#X connect 14 12 11 1;
#X connect 14 14 12 1;
#X connect 15 0 16 0;
#X connect 16 0 6 0;
#X connect 16 0 6 1;
#X connect 16 0 18 0;
