#N canvas 26 38 1576 617 10;
#X obj 29 46 hid;
#X obj 29 162 route abs;
#X obj 29 232 route abs_x abs_y, f 26;
#X floatatom 105 261 5 0 0 0 - - -, f 5;
#X floatatom 29 259 5 0 0 0 - - -, f 5;
#X floatatom 309 265 5 0 0 0 - - -, f 5;
#X floatatom 227 264 5 0 0 0 - - -, f 5;
#X floatatom 227 392 5 0 0 0 - - -, f 5;
#X floatatom 309 394 5 0 0 0 - - -, f 5;
#X obj 420 140 route key;
#X obj 420 229 route btn_11 btn_12 btn_13 btn_14;
#X obj 517 272 tgl 15 0 empty empty empty 17 7 0 10 -262144 -1 -1 0
1;
#X obj 420 272 tgl 15 0 empty empty empty 17 7 0 10 -262144 -1 -1 0
1;
#X obj 566 272 tgl 15 0 empty empty empty 17 7 0 10 -262144 -1 -1 0
1;
#X obj 468 272 tgl 15 0 empty empty empty 17 7 0 10 -262144 -1 -1 0
1;
#X obj 970 265 tgl 15 0 empty empty empty 17 7 0 10 -262144 -1 -1 0
1;
#X obj 874 263 tgl 15 0 empty empty empty 17 7 0 10 -262144 -1 -1 0
1;
#X obj 1019 267 tgl 15 0 empty empty empty 17 7 0 10 -262144 -1 -1
0 1;
#X obj 921 264 tgl 15 0 empty empty empty 17 7 0 10 -262144 -1 -1 0
1;
#X obj 873 231 route btn_17 btn_16 btn_18 btn_15;
#X obj 1213 268 tgl 15 0 empty empty empty 17 7 0 10 -262144 -1 -1
0 1;
#X obj 1416 269 tgl 15 0 empty empty empty 17 7 0 10 -262144 -1 -1
0 1;
#X obj 676 229 route btn_7 btn_8 btn_6;
#X obj 676 266 tgl 15 0 empty empty empty 17 7 0 10 -262144 -1 -1 0
1;
#X obj 721 265 tgl 15 0 empty empty empty 17 7 0 10 -262144 -1 -1 0
1;
#X obj 766 264 tgl 15 0 empty empty empty 17 7 0 10 -262144 -1 -1 0
1;
#X obj 1162 268 tgl 15 0 empty empty empty 17 7 0 10 -262144 -1 -1
0 1;
#X obj 1365 268 tgl 15 0 empty empty empty 17 7 0 10 -262144 -1 -1
0 1;
#X obj 1111 266 tgl 15 0 empty empty empty 17 7 0 10 -262144 -1 -1
0 1;
#X obj 1314 267 tgl 15 0 empty empty empty 17 7 0 10 -262144 -1 -1
0 1;
#X text 238 542 Right Stick X/Y;
#X text 64 547 Left Stick X/Y;
#X text 695 264 (-);
#X text 788 263 (+);
#X text 739 264 (H);
#X text 986 264 (Y);
#X text 891 263 (X);
#X text 942 263 (B);
#X text 1038 266 (A);
#X text 489 271 Down;
#X text 438 271 Up;
#X text 586 271 Right;
#X text 534 271 Left;
#X text 1183 266 L1;
#X text 1128 266 L2;
#X text 1333 267 R2;
#X text 1383 266 R1;
#X text 1234 267 Left Stick;
#X text 1435 268 Right Stick;
#X obj 29 14 inlet;
#X obj 29 481 outlet ls_x;
#X obj 104 481 outlet ls_y;
#X obj 310 479 outlet rs_y;
#X obj 228 479 outlet rs_x;
#X obj 419 395 outlet dpad_up;
#X obj 468 365 outlet dpad_down;
#X obj 517 337 outlet dpad_left;
#X obj 566 310 outlet dpad_right;
#X obj 676 359 outlet btn_select;
#X obj 766 296 outlet btn_start;
#X obj 721 327 outlet btn_home;
#X obj 1111 231 route btn_21 btn_19 btn_23;
#X obj 1314 232 route btn_22 btn_20 btn_24;
#X obj 874 375 outlet btn_x;
#X obj 970 325 outlet btn_y;
#X obj 921 351 outlet btn_b;
#X obj 1019 299 outlet btn_a;
#X obj 1111 362 outlet btn_l2;
#X obj 1162 328 outlet btn_l1;
#X obj 1213 301 outlet btn_ls;
#X obj 1365 331 outlet btn_r1;
#X obj 1314 369 outlet btn_r2;
#X obj 1416 301 outlet btn_rs;
#X obj 227 231 route abs_z abs_rx, f 28;
#X obj 29 330 / 60;
#X obj 105 331 / 60;
#X obj 227 315 / 60;
#X obj 309 315 / 60;
#X obj 105 294 * -1;
#X obj 309 288 * -1;
#X obj 29 407 clip -1 1;
#X floatatom 29 386 5 0 0 0 - - -, f 5;
#X floatatom 29 434 5 0 0 0 - - -, f 5;
#X obj 104 409 clip -1 1;
#X floatatom 104 388 5 0 0 0 - - -, f 5;
#X floatatom 104 436 5 0 0 0 - - -, f 5;
#X obj 227 418 clip -1 1;
#X floatatom 227 445 5 0 0 0 - - -, f 5;
#X obj 310 420 clip -1 1;
#X floatatom 310 447 5 0 0 0 - - -, f 5;
#X connect 0 0 1 0;
#X connect 0 0 9 0;
#X connect 1 0 2 0;
#X connect 1 0 73 0;
#X connect 2 0 4 0;
#X connect 2 1 3 0;
#X connect 3 0 78 0;
#X connect 4 0 74 0;
#X connect 5 0 79 0;
#X connect 6 0 76 0;
#X connect 7 0 86 0;
#X connect 8 0 88 0;
#X connect 9 0 10 0;
#X connect 9 0 19 0;
#X connect 9 0 22 0;
#X connect 9 0 61 0;
#X connect 9 0 62 0;
#X connect 10 0 12 0;
#X connect 10 1 14 0;
#X connect 10 2 11 0;
#X connect 10 3 13 0;
#X connect 11 0 56 0;
#X connect 12 0 54 0;
#X connect 13 0 57 0;
#X connect 14 0 55 0;
#X connect 15 0 64 0;
#X connect 16 0 63 0;
#X connect 17 0 66 0;
#X connect 18 0 65 0;
#X connect 19 0 16 0;
#X connect 19 1 18 0;
#X connect 19 2 15 0;
#X connect 19 3 17 0;
#X connect 20 0 69 0;
#X connect 21 0 72 0;
#X connect 22 0 23 0;
#X connect 22 1 24 0;
#X connect 22 2 25 0;
#X connect 23 0 58 0;
#X connect 24 0 60 0;
#X connect 25 0 59 0;
#X connect 26 0 68 0;
#X connect 27 0 70 0;
#X connect 28 0 67 0;
#X connect 29 0 71 0;
#X connect 49 0 0 0;
#X connect 61 0 28 0;
#X connect 61 1 26 0;
#X connect 61 2 20 0;
#X connect 62 0 29 0;
#X connect 62 1 27 0;
#X connect 62 2 21 0;
#X connect 73 0 6 0;
#X connect 73 1 5 0;
#X connect 74 0 81 0;
#X connect 75 0 84 0;
#X connect 76 0 7 0;
#X connect 77 0 8 0;
#X connect 78 0 75 0;
#X connect 79 0 77 0;
#X connect 80 0 82 0;
#X connect 81 0 80 0;
#X connect 82 0 50 0;
#X connect 83 0 85 0;
#X connect 84 0 83 0;
#X connect 85 0 51 0;
#X connect 86 0 87 0;
#X connect 87 0 53 0;
#X connect 88 0 89 0;
#X connect 89 0 52 0;
