#N canvas 624 256 491 423 10;
#X obj 43 246 ramp, f 31;
#X obj 4 299 *~, f 7;
#X obj 4 272 osc~;
#X floatatom 4 247 5 0 0 0 - - -, f 5;
#X obj 4 356 outlet~;
#X obj 4 212 inlet;
#X obj 43 212 inlet;
#X obj 88 29 vsl 15 128 0 1000 0 0 empty empty Attack 0 -9 0 10 -216371
-1 -1 0 1;
#X obj 173 29 vsl 15 128 0 1 0 0 empty empty Sustain 0 -9 0 10 -216371
-1 -1 0 1;
#X obj 132 29 vsl 15 128 0 1000 0 0 empty empty Decay 0 -9 0 10 -216371
-1 -1 0 1;
#X obj 226 30 vsl 15 128 0 1000 0 0 empty empty Release 0 -9 0 10 -216371
-1 -1 0 1;
#X floatatom 88 178 5 0 0 0 - - -, f 5;
#X floatatom 173 178 5 0 0 0 - - -, f 5;
#X floatatom 132 178 5 0 0 0 - - -, f 5;
#X floatatom 226 177 5 0 0 0 - - -, f 5;
#X obj 4 328 *~, f 48;
#X obj 289 30 vsl 15 128 0 1 0 0 empty empty Amp 0 -9 0 10 -99929 -262144
-262144 0 1;
#X floatatom 289 177 5 0 0 0 - - -, f 5;
#X connect 0 0 1 1;
#X connect 1 0 15 0;
#X connect 2 0 1 0;
#X connect 3 0 2 0;
#X connect 5 0 3 0;
#X connect 6 0 0 0;
#X connect 7 0 11 0;
#X connect 8 0 12 0;
#X connect 9 0 13 0;
#X connect 10 0 14 0;
#X connect 11 0 0 1;
#X connect 12 0 0 2;
#X connect 13 0 0 3;
#X connect 14 0 0 4;
#X connect 15 0 4 0;
#X connect 16 0 17 0;
#X connect 17 0 15 1;
#X coords 0 -1 1 1 250 200 1 80 0;
