#N canvas 624 256 491 423 10;
#X obj 43 246 ramp, f 31;
#X obj 4 299 *~, f 7;
#X obj 4 272 osc~;
#X floatatom 4 247 5 0 0 0 - - -, f 5;
#X obj 4 356 outlet~;
#X obj 4 212 inlet;
#X obj 43 212 inlet;
#X obj 88 29 vsl 15 128 0 1000 0 0 empty empty empty 0 -9 0 10 -262144
-1 -1 200 1;
#X obj 134 28 vsl 15 128 0 1 0 0 empty empty empty 0 -9 0 10 -262144
-1 -1 2100 1;
#X obj 180 29 vsl 15 128 0 1000 0 0 empty empty empty 0 -9 0 10 -262144
-1 -1 1100 1;
#X obj 226 30 vsl 15 128 0 1000 0 0 empty empty empty 0 -9 0 10 -262144
-1 -1 2300 1;
#X floatatom 88 178 5 0 0 0 - - -, f 5;
#X floatatom 134 177 5 0 0 0 - - -, f 5;
#X floatatom 180 177 5 0 0 0 - - -, f 5;
#X floatatom 226 177 5 0 0 0 - - -, f 5;
#X obj 4 328 *~, f 52;
#X obj 313 30 vsl 15 128 0 1000 0 0 empty empty empty 0 -9 0 10 -262144
-1 -1 9800 1;
#X floatatom 313 177 5 0 0 0 - - -, f 5;
#X text 106 29 ATT;
#X text 197 28 DEC;
#X text 242 28 REL;
#X text 328 29 AMP;
#X text 150 28 LVL;
#X connect 0 0 1 1;
#X connect 1 0 15 0;
#X connect 2 0 1 0;
#X connect 3 0 2 0;
#X connect 5 0 3 0;
#X connect 6 0 0 0;
#X connect 7 0 11 0;
#X connect 8 0 12 0;
#X connect 9 0 13 0;
#X connect 10 0 14 0;
#X connect 11 0 0 1;
#X connect 12 0 0 2;
#X connect 13 0 0 3;
#X connect 14 0 0 4;
#X connect 15 0 4 0;
#X connect 16 0 17 0;
#X connect 17 0 15 1;
#X coords 0 -1 1 1 250 200 1 80 0;
