#N canvas 0 22 1158 843 10;
#X obj 46 768 dac~ 1 2;
#X obj 291 416 bng 15 250 50 0 empty empty empty 17 7 0 10 -262144
-1 -1;
#X obj 291 370 t b b, f 7;
#X obj 46 702 *~ 1;
#X obj 47 214 mtof;
#X floatatom 47 238 5 0 0 0 - - -, f 5;
#X obj 46 18 key;
#X obj 46 57 bng 15 250 50 0 empty empty empty 17 7 0 10 -262144 -1
-1;
#X obj 46 90 s trigger;
#X obj 291 346 r trigger;
#X obj 47 262 s fundamental;
#X obj 47 344 r fundamental;
#X obj 46 731 *~ 0.125;
#X obj 67 57 s key;
#X obj 47 164 r key;
#X obj 159 262 s 2nd;
#X obj 159 166 r fundamental;
#X msg 174 189 2;
#X obj 159 213 *;
#X floatatom 159 240 5 0 0 0 - - -, f 5;
#X obj 259 167 r fundamental;
#X obj 259 214 *;
#X floatatom 259 241 5 0 0 0 - - -, f 5;
#X msg 274 190 3;
#X obj 259 263 s 3rd;
#X obj 356 167 r fundamental;
#X obj 356 214 *;
#X floatatom 356 241 5 0 0 0 - - -, f 5;
#X obj 456 168 r fundamental;
#X obj 456 215 *;
#X floatatom 456 242 5 0 0 0 - - -, f 5;
#X obj 552 168 r fundamental;
#X obj 552 215 *;
#X floatatom 552 242 5 0 0 0 - - -, f 5;
#X obj 652 169 r fundamental;
#X obj 652 216 *;
#X floatatom 652 243 5 0 0 0 - - -, f 5;
#X obj 749 169 r fundamental;
#X obj 749 216 *;
#X floatatom 749 243 5 0 0 0 - - -, f 5;
#X msg 371 190 4;
#X msg 472 190 5;
#X msg 567 191 6;
#X msg 667 192 7;
#X msg 764 191 8;
#X obj 356 263 s 4th;
#X obj 456 264 s 5th;
#X obj 552 264 s 6th;
#X obj 652 265 s 7th;
#X obj 749 265 s 8th;
#X obj 47 475 partial, f 34;
#X floatatom 133 63 5 0 0 0 - - -, f 5;
#X connect 1 0 50 1;
#X connect 2 0 1 0;
#X connect 3 0 12 0;
#X connect 4 0 5 0;
#X connect 5 0 10 0;
#X connect 6 0 7 0;
#X connect 6 0 13 0;
#X connect 6 0 51 0;
#X connect 7 0 8 0;
#X connect 9 0 2 0;
#X connect 11 0 50 0;
#X connect 12 0 0 0;
#X connect 12 0 0 1;
#X connect 14 0 4 0;
#X connect 16 0 18 0;
#X connect 17 0 18 1;
#X connect 18 0 19 0;
#X connect 19 0 15 0;
#X connect 20 0 21 0;
#X connect 21 0 22 0;
#X connect 22 0 24 0;
#X connect 23 0 21 1;
#X connect 25 0 26 0;
#X connect 26 0 27 0;
#X connect 27 0 45 0;
#X connect 28 0 29 0;
#X connect 29 0 30 0;
#X connect 30 0 46 0;
#X connect 31 0 32 0;
#X connect 32 0 33 0;
#X connect 33 0 47 0;
#X connect 34 0 35 0;
#X connect 35 0 36 0;
#X connect 36 0 48 0;
#X connect 37 0 38 0;
#X connect 38 0 39 0;
#X connect 39 0 49 0;
#X connect 40 0 26 1;
#X connect 41 0 29 1;
#X connect 42 0 32 1;
#X connect 43 0 35 1;
#X connect 44 0 38 1;
#X connect 50 0 3 0;
