#N canvas 502 96 1311 1078 10;
#X obj 540 945 dac~ 1 2;
#X obj 47 126 mtof;
#X floatatom 47 170 10 0 0 0 - - -, f 10;
#X obj 55 857 key;
#X obj 55 910 bng 15 250 50 0 empty empty empty 17 7 0 10 -262144 -1
-1;
#X obj 55 989 s trigger;
#X obj 290 73 r trigger;
#X obj 78 962 s key;
#X obj 47 102 r key;
#X obj 313 99 r fundamental;
#X obj 313 146 *;
#X floatatom 313 170 10 0 0 0 - - -, f 10;
#X floatatom 78 909 5 0 0 0 - - -, f 5;
#X obj 313 195 partial, f 34;
#X obj 540 912 *~ 0.125;
#X obj 817 73 r trigger;
#X obj 556 72 r trigger;
#X obj 47 195 partial, f 34;
#X obj 574 196 partial, f 34;
#X obj 833 197 partial, f 34;
#X obj 1076 82 r trigger;
#X floatatom 328 124 5 0 0 0 - - -, f 5;
#X obj 574 100 r fundamental;
#X obj 574 147 *;
#X floatatom 574 171 10 0 0 0 - - -, f 10;
#X floatatom 589 125 5 0 0 0 - - -, f 5;
#X obj 833 103 r fundamental;
#X obj 833 150 *;
#X floatatom 833 174 10 0 0 0 - - -, f 10;
#X floatatom 848 128 5 0 0 0 - - -, f 5;
#X obj 295 438 r trigger;
#X obj 318 464 r fundamental;
#X obj 318 511 *;
#X floatatom 318 535 10 0 0 0 - - -, f 10;
#X obj 318 560 partial, f 34;
#X obj 822 438 r trigger;
#X obj 561 437 r trigger;
#X obj 52 560 partial, f 34;
#X obj 579 561 partial, f 34;
#X obj 839 562 partial, f 34;
#X obj 1081 447 r trigger;
#X floatatom 333 489 5 0 0 0 - - -, f 5;
#X obj 579 465 r fundamental;
#X obj 579 512 *;
#X floatatom 579 536 10 0 0 0 - - -, f 10;
#X floatatom 594 490 5 0 0 0 - - -, f 5;
#X obj 838 468 r fundamental;
#X obj 838 515 *;
#X floatatom 838 539 10 0 0 0 - - -, f 10;
#X floatatom 853 493 5 0 0 0 - - -, f 5;
#X obj 8 10 cnv 15 1280 30 empty empty Lab_3_-_Exercise_1:_AdditiveSynth
20 15 0 14 -153956 -262144 0;
#X obj 6 1041 cnv 15 1280 30 empty empty SoundSpaceInteraction_2015_MediaTechnologyMScProgramme
20 15 0 14 -191407 -66577 0;
#X obj 47 400 s~ p1;
#X obj 313 400 s~ p2;
#X obj 574 401 s~ p3;
#X obj 833 402 s~ p4;
#X obj 53 464 r fundamental;
#X obj 53 511 *;
#X floatatom 53 535 10 0 0 0 - - -, f 10;
#X floatatom 68 489 5 0 0 0 - - -, f 5;
#X obj 52 765 s~ p5;
#X obj 318 765 s~ p6;
#X obj 579 766 s~ p7;
#X obj 838 767 s~ p8;
#X obj 400 835 r~ p1;
#X obj 439 835 r~ p2;
#X obj 478 835 r~ p3;
#X obj 517 835 r~ p4;
#X obj 556 835 r~ p5;
#X obj 595 835 r~ p6;
#X obj 634 835 r~ p7;
#X obj 673 835 r~ p8;
#X obj 116 168 s fundamental;
#X obj 78 933 - 20;
#X connect 1 0 2 0;
#X connect 1 0 72 0;
#X connect 2 0 17 0;
#X connect 3 0 4 0;
#X connect 3 0 12 0;
#X connect 4 0 5 0;
#X connect 6 0 17 1;
#X connect 8 0 1 0;
#X connect 9 0 10 0;
#X connect 10 0 11 0;
#X connect 11 0 13 0;
#X connect 12 0 73 0;
#X connect 13 0 53 0;
#X connect 14 0 0 0;
#X connect 14 0 0 1;
#X connect 15 0 18 1;
#X connect 16 0 13 1;
#X connect 17 0 52 0;
#X connect 18 0 54 0;
#X connect 19 0 55 0;
#X connect 20 0 19 1;
#X connect 21 0 10 1;
#X connect 22 0 23 0;
#X connect 23 0 24 0;
#X connect 24 0 18 0;
#X connect 25 0 23 1;
#X connect 26 0 27 0;
#X connect 27 0 28 0;
#X connect 28 0 19 0;
#X connect 29 0 27 1;
#X connect 30 0 37 1;
#X connect 31 0 32 0;
#X connect 32 0 33 0;
#X connect 33 0 34 0;
#X connect 34 0 61 0;
#X connect 35 0 38 1;
#X connect 36 0 34 1;
#X connect 37 0 60 0;
#X connect 38 0 62 0;
#X connect 39 0 63 0;
#X connect 40 0 39 1;
#X connect 41 0 32 1;
#X connect 42 0 43 0;
#X connect 43 0 44 0;
#X connect 44 0 38 0;
#X connect 45 0 43 1;
#X connect 46 0 47 0;
#X connect 47 0 48 0;
#X connect 48 0 39 0;
#X connect 49 0 47 1;
#X connect 56 0 57 0;
#X connect 57 0 58 0;
#X connect 58 0 37 0;
#X connect 59 0 57 1;
#X connect 64 0 14 0;
#X connect 65 0 14 0;
#X connect 66 0 14 0;
#X connect 67 0 14 0;
#X connect 68 0 14 0;
#X connect 69 0 14 0;
#X connect 70 0 14 0;
#X connect 71 0 14 0;
#X connect 73 0 7 0;
