#N canvas 1109 694 450 300 10;
#X obj 59 77 ramp, f 41;
#X obj 20 130 *~, f 7;
#X obj 20 103 osc~;
#X floatatom 20 78 5 0 0 0 - - -, f 5;
#X obj 20 157 outlet~;
#X obj 59 49 inlet;
#X obj 20 49 inlet;
#X obj 119 50 inlet;
#X obj 180 50 inlet;
#X obj 241 50 inlet;
#X obj 302 50 inlet;
#X connect 0 0 1 1;
#X connect 1 0 4 0;
#X connect 2 0 1 0;
#X connect 3 0 2 0;
#X connect 5 0 0 0;
#X connect 6 0 3 0;
#X connect 7 0 0 1;
#X connect 8 0 0 2;
#X connect 9 0 0 3;
#X connect 10 0 0 4;
