#N canvas 303 22 1410 744 10;
#X floatatom 238 196 5 0 0 0 - - -, f 5;
#X obj 140 129 bng 15 250 50 0 empty empty empty 17 7 0 10 -262144
-1 -1;
#X obj 140 149 t b b;
#X obj 141 233 pack 1 \$1;
#X obj 205 234 del \$1;
#X floatatom 345 196 5 0 0 0 - - -, f 5;
#X floatatom 288 196 5 0 0 0 - - -, f 5;
#X obj 205 319 pack \$1 \$2;
#X obj 393 249 +, f 14;
#X floatatom 393 315 5 0 0 0 - - -, f 5;
#X floatatom 411 414 5 0 0 0 - - -, f 5;
#X obj 360 348 del \$1;
#X obj 360 441 pack 0 \$2;
#X obj 360 383 t b b;
#X obj 143 537 line~;
#X obj 238 118 inlet;
#X obj 345 116 inlet;
#X obj 288 118 inlet;
#X obj 411 116 inlet;
#X obj 143 566 outlet~;
#X obj 140 78 inlet;
#X text 140 50 trigger;
#X text 227 85 attack time;
#X text 275 100 decay level;
#X text 322 82 decay time;
#X text 392 81 release time;
#X connect 0 0 3 1;
#X connect 0 0 4 1;
#X connect 0 0 8 0;
#X connect 1 0 2 0;
#X connect 2 0 3 0;
#X connect 2 0 4 0;
#X connect 2 0 5 0;
#X connect 2 0 11 0;
#X connect 2 1 0 0;
#X connect 3 0 14 0;
#X connect 4 0 7 0;
#X connect 5 0 7 1;
#X connect 5 0 8 1;
#X connect 6 0 7 0;
#X connect 7 0 14 0;
#X connect 8 0 9 0;
#X connect 9 0 11 1;
#X connect 10 0 12 1;
#X connect 11 0 13 0;
#X connect 12 0 14 0;
#X connect 13 0 12 0;
#X connect 13 1 10 0;
#X connect 14 0 19 0;
#X connect 15 0 0 0;
#X connect 16 0 5 0;
#X connect 17 0 6 0;
#X connect 18 0 10 0;
#X connect 20 0 1 0;
