#N canvas 303 22 1410 744 10;
#X floatatom 814 206 5 0 0 0 - - -, f 5;
#X obj 716 139 bng 15 250 50 0 empty empty empty 17 7 0 10 -262144
-1 -1;
#X obj 716 159 t b b;
#X obj 717 323 pack 1 \$1;
#X obj 781 269 del \$1;
#X floatatom 911 206 5 0 0 0 - - -, f 5;
#X floatatom 854 206 5 0 0 0 - - -, f 5;
#X obj 854 319 pack \$1 \$2;
#X floatatom 951 208 5 0 0 0 - - -, f 5;
#X obj 959 279 +;
#X floatatom 959 325 5 0 0 0 - - -, f 5;
#X floatatom 977 441 5 0 0 0 - - -, f 5;
#X obj 926 358 del \$1;
#X obj 926 468 pack 0 \$2;
#X obj 926 393 t b b;
#X obj 719 547 line~;
#X obj 824 128 inlet;
#X obj 988 126 inlet;
#X obj 903 123 inlet;
#X text 824 100 attack time;
#X text 985 98 decay time;
#X text 904 99 decay level;
#X text 1071 102 release time;
#X obj 1074 130 inlet;
#X obj 719 576 outlet~;
#X obj 711 88 inlet;
#X text 711 60 trigger;
#X connect 0 0 3 1;
#X connect 0 0 4 1;
#X connect 0 0 9 0;
#X connect 1 0 2 0;
#X connect 2 0 3 0;
#X connect 2 0 4 0;
#X connect 2 0 5 0;
#X connect 2 0 12 0;
#X connect 2 1 0 0;
#X connect 3 0 15 0;
#X connect 4 0 7 0;
#X connect 5 0 7 1;
#X connect 5 0 9 1;
#X connect 6 0 7 0;
#X connect 7 0 15 0;
#X connect 9 0 10 0;
#X connect 10 0 12 1;
#X connect 11 0 13 1;
#X connect 12 0 14 0;
#X connect 13 0 15 0;
#X connect 14 0 13 0;
#X connect 14 1 11 0;
#X connect 15 0 24 0;
#X connect 16 0 0 0;
#X connect 17 0 5 0;
#X connect 18 0 6 0;
#X connect 23 0 11 0;
#X connect 25 0 1 0;
