#N canvas 202 317 736 510 10;
#X obj 155 118 ramp, f 30;
#X obj 140 279 dac~ 1 2;
#X obj 140 240 *~;
#X msg 199 82 500;
#X msg 243 83 0.7;
#X msg 287 84 1000;
#X msg 332 84 2000;
#X obj 377 118 ramp, f 30;
#X msg 421 82 500;
#X msg 465 83 0.7;
#X msg 509 84 1000;
#X msg 554 84 2000;
#X obj 155 174 *~ 0.125;
#X obj 16 94 osc~;
#X floatatom 16 47 5 0 0 0 - - -, f 5;
#X obj 155 25 bng 15 250 50 0 empty empty empty 17 7 0 10 -262144 -1
-1;
#X obj 155 174 *~ 0.125;
#X obj 375 170 *~ 0.125;
#X obj 375 170 *~ 0.125;
#X obj 155 208 *~ 1;
#X connect 0 0 12 0;
#X connect 2 0 1 0;
#X connect 2 0 1 1;
#X connect 3 0 0 1;
#X connect 4 0 0 2;
#X connect 5 0 0 3;
#X connect 6 0 0 4;
#X connect 7 0 17 0;
#X connect 8 0 7 1;
#X connect 9 0 7 2;
#X connect 10 0 7 3;
#X connect 11 0 7 4;
#X connect 12 0 19 0;
#X connect 13 0 2 0;
#X connect 14 0 13 0;
#X connect 15 0 0 0;
#X connect 15 0 3 0;
#X connect 15 0 4 0;
#X connect 15 0 5 0;
#X connect 15 0 6 0;
#X connect 19 0 2 1;
