#N canvas 405 22 643 600 10;
#X obj 82 415 inlet~;
#X obj 199 406 line~;
#X msg 199 377 \$1 20;
#X text 102 457 L;
#X text 211 460 R;
#X obj 134 350 cos;
#X obj 199 349 sin;
#X floatatom 179 101 5 0 0 0 - - -, f 5;
#X obj 134 406 line~;
#X msg 134 377 \$1 20;
#X obj 119 459 *~;
#X obj 184 459 *~;
#X obj 194 266 / 2;
#X obj 179 297 *;
#X obj 179 125 + 1;
#X floatatom 179 175 5 0 0 0 - - -, f 5;
#X obj 179 150 * 0.5;
#X obj 119 494 outlet~;
#X obj 184 495 outlet~;
#X text 19 416 Audio IN;
#X obj 194 238 expr 8*atan(1);
#X obj 194 212 loadbang;
#X obj 0 0 cnv 15 640 30 empty empty Cosine_based_panning 20 12 0 14
-204800 -66577 0;
#X obj 179 70 inlet stereo_position;
#X obj -1 554 cnv 15 640 30 empty empty Sound_Space_Interaction_2015_Media_Technology_MSc._Programme
20 12 0 14 -191407 -66577 0;
#X connect 0 0 11 0;
#X connect 0 0 10 0;
#X connect 1 0 11 1;
#X connect 2 0 1 0;
#X connect 5 0 9 0;
#X connect 6 0 2 0;
#X connect 7 0 14 0;
#X connect 8 0 10 1;
#X connect 9 0 8 0;
#X connect 10 0 17 0;
#X connect 11 0 18 0;
#X connect 12 0 13 1;
#X connect 13 0 5 0;
#X connect 13 0 6 0;
#X connect 14 0 16 0;
#X connect 15 0 13 0;
#X connect 16 0 15 0;
#X connect 20 0 12 0;
#X connect 21 0 20 0;
#X connect 23 0 7 0;
